<mxfile host="app.diagrams.net" agent="Mozilla/5.0 (X11; Linux x86_64; rv:130.0) Gecko/20100101 Firefox/130.0" version="24.7.16">
  <diagram name="PÃ¡gina-1" id="1VhOz7PO_4HpHr8N-v7U">
    <mxGraphModel dx="1434" dy="760" grid="0" gridSize="10" guides="1" tooltips="1" connect="1" arrows="1" fold="1" page="1" pageScale="1" pageWidth="827" pageHeight="1169" math="0" shadow="0">
      <root>
        <mxCell id="0" />
        <mxCell id="1" parent="0" />
        <mxCell id="1slNe64gq0bpDraKGNJo-1" style="edgeStyle=orthogonalEdgeStyle;rounded=0;orthogonalLoop=1;jettySize=auto;html=1;entryX=0.5;entryY=0;entryDx=0;entryDy=0;" parent="1" source="1slNe64gq0bpDraKGNJo-2" target="1slNe64gq0bpDraKGNJo-7" edge="1">
          <mxGeometry relative="1" as="geometry" />
        </mxCell>
        <mxCell id="1slNe64gq0bpDraKGNJo-2" value="" style="rounded=0;whiteSpace=wrap;html=1;" parent="1" vertex="1">
          <mxGeometry x="140" y="240" width="170" height="100" as="geometry" />
        </mxCell>
        <mxCell id="1slNe64gq0bpDraKGNJo-3" value="" style="shape=mxgraph.signs.tech.computer;html=1;pointerEvents=1;fillColor=#000000;strokeColor=none;verticalLabelPosition=bottom;verticalAlign=top;align=center;" parent="1" vertex="1">
          <mxGeometry x="220" y="264.75" width="50" height="50" as="geometry" />
        </mxCell>
        <mxCell id="1slNe64gq0bpDraKGNJo-4" value="" style="sketch=0;outlineConnect=0;fontColor=#232F3E;gradientColor=none;fillColor=#232F3D;strokeColor=none;dashed=0;verticalLabelPosition=bottom;verticalAlign=top;align=center;html=1;fontSize=12;fontStyle=0;aspect=fixed;pointerEvents=1;shape=mxgraph.aws4.user;" parent="1" vertex="1">
          <mxGeometry x="160" y="265.25" width="49.5" height="49.5" as="geometry" />
        </mxCell>
        <mxCell id="1slNe64gq0bpDraKGNJo-5" style="edgeStyle=orthogonalEdgeStyle;rounded=0;orthogonalLoop=1;jettySize=auto;html=1;" parent="1" source="1slNe64gq0bpDraKGNJo-7" target="1slNe64gq0bpDraKGNJo-10" edge="1">
          <mxGeometry relative="1" as="geometry" />
        </mxCell>
        <mxCell id="1slNe64gq0bpDraKGNJo-6" style="edgeStyle=orthogonalEdgeStyle;rounded=0;orthogonalLoop=1;jettySize=auto;html=1;" parent="1" source="1slNe64gq0bpDraKGNJo-7" target="1slNe64gq0bpDraKGNJo-9" edge="1">
          <mxGeometry relative="1" as="geometry" />
        </mxCell>
        <mxCell id="1slNe64gq0bpDraKGNJo-7" value="" style="shape=image;verticalLabelPosition=bottom;labelBackgroundColor=default;verticalAlign=top;aspect=fixed;imageAspect=0;image=data:image/webp,UklGRvYrAABXRUJQVlA4TOorAAAv/8F/EGpR3LaNY+0/dqqv/CNiAvRRah8+lr4KAlNqyMElcJBehKKBcsJij9Wen82BnbQFg1fioH1HbUFIQk/FNP+/sr1t/M7yKjSNn3NuyWJZZpSDzyso1/e5bkOZmZn5XXF9/65znet6zlXyCTNzNCfMvGJmWGUGFebEVsbxLpwVgyd4zVMMMz8ph3lV7oo5aBiaeBVO7NUTThR6AWXmViXHr6DckFImq9xwNJ4Jk0PbzDCTw5wVuh7vPCpzK5e59TLahcEqhmccxvKKmVtnyszMzMzMzC5zw2goBDyaymWu5ylDSCnXZSbtytwGykxSGeyO0pmUVWbuCgOnpF251a7MzMzMYJUZlCmvmCm0oiUAbhpLykFmOa6yHTtJJ/0/R+v79Ofybj9XpYdhmZmZmYGSAEiOGql+IENFVINYv6f5ZK+hI6rxIIeT94CkkfkfEmjbNu2mX7Ft27Zt265t2wxq27Zt20bwa4drAuxI265scrNblZYgmZmZm5mhppnpn3ZzDzMzM6NY//+cU+d89TkXhl6DI5eX8judHRjfNXSo0NSqLzKF3oCWMHI4jjlSZiaxNLwAM4QcOnLMkLuUTmRegCKznfUyBDtQeQvC1Ni5Q96DahYg6OolmO24q0NvYeIupxOb3aEZMi2gU0cOFZvtyCEz2x39m1A2KzAzRl4BQ+byFjpU5KpTNZA5+sqhF6LMNZljb4G9gEldA6FsSbJN2/qh83aubdu2bdu2bdu+27YPt217l2RJtk3b+ou1pta9z7aNlm3btm3b6l7btm3bttX/CVDV+r9a/x8u+hT3lWox1erF9uih/41jgi1GQvrKISbas9nSQ/YJBUcVL07pzBCdTaJiihcPIQc12yyJHY+RjGQk9MGeTrFibbpcin2pZbeZtQENdiV0GEWVRukyAg2g0HhKzyfQakLvptBpQt0i9CsKf6U0NhPoN4U+EuoRhS4T6AilthJ4KaFnEnoUhXuHoGJKJ4diFRoK2T4Va2VfJ1keaIzmdmlUn8cm9DoKH6XQPQo3UapLO/nHCfyUUmcptJFQ8wg0iFKF31o6KrtkuVTyUZLlUiYUZRODHE/ovgSuJfRBSj/8cS3aH18JhffPgiL3pDFHp6DNknVrka8xvhBrLxJV+tjTpfRLSnVosRPqP6UfU3gvpeeGqB7FOxfblULf4dgen9JjXoJArxO0ixL6H6GvEKqh1uQpO/bXJzi2UFACgcYSag+l32l3JtBPAp+pr9nSup1A8n1qcULPoPCNBO3ulJISehuNrkmRu3qyrgsxcCqFFhD6boL2hBRun+72U9xXysm3UJQmDS6ZLoVbtZek1PfRFy8m00I5m1x4Tfm191xNTKiqhyLJkl0ayN/ndyZoj7rw+jYuwXpxau+uveyPE7g+eegYyq1lx0C57UvQXpfAfyg8JRVrZXn1wp9Uo/bEBP5M4eHl9BNZOTUwSpXfofbMNVIoTkaFmGMJfF97agqvialWl03nPHrttRdOWGVJpdK6nYBAvX5ce/Cll46+ljw657vW3pxAb1uTRQRVJKGatXBDzCRnlyIpYp8y0oASKfOIVGnMQ6bOY9IMxzzXc6UbzsiXJh/zXM+VOk95yId8yBIlSnxDkVCsEYlefw/lEI0amV+LMHnskTKPSTOckL6ckaHMyVhXlD1eUe50S/nTAxXOT1S8W1PJ8kqm9Z227D9p6/4beyvbf1Dp8kYluw0V7l4of36kvOmecqYbyh4vKbOuyFDn5EuTp6RMQ5LHLs7SmlLr6dhTlD/p1rmEwKu0k0OsOc5C6cs5ucoZbyh/fqCi3Zpsbdl/ETi3QCXLGxXtXmh32eM1Y87798c5HGdoQt8lfTaSPenWUqEl7UzKTMo0Il+u8uY7Ws20fhCIdXUV7TZsoazxkrzrSBG78KYp/ObV5U6yXCo9sOa+mQGV/MHTOeG2rt8EAl9dq1vIk344J1Uek5MfTSkpgbxlzlgJdV5zXUbqk3Y4pax6SQXzI5nWn7R1/41bFq14t6Hm9GVGitSHE03hXxcvb5ZNoH2a2/jUeUKu06ls/UngvqXKnq55LhoND5rCrYRKkTYEXqz5jC+Up8LdMwUC117w16dOEzjQ639lSbNtzWORj253ZesHgdv3J2Ndkts2vUMSqmApQ2L2W799RcqsC7IUDTxhW9ZPvr6MOMAuTaEvry5hxkfpl9ruAZU339OjwDs2Wd50R4o0wCZN6FdtLpWufPk0be8ml7ihoTGLTvkb7NEUPjUw2ULhiARbHvmrBxoatEf15LRFE2iyZNk4gR5oGzf51SpdXA2N2vdUeYIthO5ci1y5cG3jH29t2HryqcH1jqflvC5uLavtam3qZmvubGpsKaq2PC4I3pt0/BF+sguCwjlt0IRuSR46hjJlfLPEvbnGsPGnyTdz+vs6VmfI2i6mpnrHUo/ex0tywc5TpgE26EUm69YiiUKQR2j4HW9tWH/sQT5Zz4vGlgdMW4fFe6LPZBylu4fcgh7ltUETur88GSulpLCVmn6u2ux2pC7u1vtuiR8a7zaRPVpaTjk9RG5BkMcGSv84Z2lCmLtr9MpNvwzrj9zNw/KoYLXGkIkdU+wP3J0oueAhmoDppcuSYqeAKmlYf5RuHg2/lZvwMx8uuaDp3DC9FklCmQM0OF05I7D+yF3d89+XmiwjT6VLLmg1N4zAz4ciR+YLqiUpitgLmSbT8fVB1xVRkgtazY3Sq5MiG/8bTHzFy4agmp92bti4ygAbc3Ck6zhDfCUXNB2P6t2TyZCeamzzQTX/RldLk8l6U9kF5U93oPQLyhAKTcWkiD0KRBGyL8lkvlp98NSzQmUX5EJ99QtLkKfB1BxU8417d7axM5v+rpRekDafAtKErpAfx5YD8g1Fo3BZHmVyeJbjD/eT3oKbAdVYTHoQuEhD8wRRbsqDGX02Q3rBq4L0h0mP+WIqXd+IZmCwk4s2slr5BXlBhNosPQh8CZImHxNEeZLxgSaXowv9K+SXlBuz/i5IjtiuFK4NUjgan01xfJgnmRAov6AwRlO6THIQ1rYa2lQ0MeczOfFYG6MBxvSyGEIflhxvC3nEINrU27mcBOxM1ADBlWIo3DpWuXG1kF1EVf9xASehB5K1QFv3XzQD0a8sNwi8AZIrqvtz4r8jQQsEZdULMH8pN2qCvHRUMecyOHFbGa0JFhwPofQ1uUGoF5CmovLeGMfJicYEaIJgopD8MdXqMqO0bidYPyQpqhOPDeBjZKb3G9rgOCA6Bk6VGb+nkfFB9AMCnVw0/19laMMFYyg9SWbQWDlBSgCyXxVzEX4kRSME64DMQ2Y8PiRVngA4/YJwHsaWB4410Ecr7BRC6FcyIwY5HpJ2OAFgdDY2cpD7tsTQiqcDyb9xifG2kHkjvDbEsvvT9zRDNogeicSYMyR9mYMwWolrmKXdyzO0Y27I8CQGhQdCyqwLICcaGzAi3cuod0fr0ft4aYhCEBKVLzEoqmGQXBDDZ3PctkxG5ftOMS3E0JB5Id2VGPcMaRljRJxIYzGuOuixNsbQkhnKHMiLSwwCj4OUNV4AMjbcFnatKxqaMheEUtMlBqUmQnaKMvy3J4zK9YEGBjpPNy/c0JZlj1dAZiExrhaSB2acdGJQe3U9YrXGUOHnsp8YGrPc8QYIpRdKjAnxZWwcsCOhV1urTe1UdU6LIwzNWe50C4RQi6SRYWzsujLqtme3or+vI/Np4d8MDSq7DMPY+PmHJ13PtjwquE3Gg/z4S1kfurChTSWY5q02aI9YQvBlpCGF8l5ppvUDf8MVQzGTK8nn03pQpfw+3Uym5Q2/T59+Ub9Pf73v9w2+n27a9ytnvML3+0k/gEBj3S2vH0DgKt9v875fbFcKKfzJ71M/7vuNr3d+nwpF+a/f71O3S+Fffp/aNIEv+X2q2O3u4N39vcOairXySERPqSG+h/hrrdZ/h98W6UuVTZOQE1+QwNP+r88tEerk03Sd0i+94iyl2cZjQseNoqp8BUJf+RDtkeVTI4//h1+7fu2lJdNItt3nxrTXlkkkdvR3R+mH2otLoye73T4TqE17c0lUP4Fn/4327FIoJv1v+oeU+qs9vARK3nctP60B7emlz3T+ML/2+JJn2V15d+35S0qdtyf0XR0HbF7i/GddOk74qvKmtevXccImCsiaZN1a9LcN6LhhmWVJIGlS0GYEuqjjiEVuRtLEBIcQqlnHEVs4ncDNYg9BaBlxTFjMhGuW+cESv3LLxPfMfGqZNyzhtGUeZMYWy1hgmQOshowqWnKMPBMkXoDQ/RvWccSOlDc9ELgZ2xhtGXctE4cysY0J95i4KmJWsYvCwd1iu1K4Qh1XXElTgYsd2v9BYJljmNhlHM3Mj5a5khlZkYebCq41FALt0HHD5LFH3grmJwKB82CJ443zmfHbEjZFFBP3/RhErvTb/6D5Hc7ppx1OyFAXdHgLWbI0Vcmy5YS9Z7bMgdg5iGwxPlEAxhhmvGXi6PBTScd9UrFWpvQ5zedwUucJZdYFWygVxOHZ1W4ZD40oLeO/Ja7bK8PKZX57cprHbyhZfYEgjs+ObUw3AmVG65tH3NRykxduSdv/WhnLko8KJCA7y1wrEmOY+T0iDo51ELtGfym8XdueZjihgvmBzIEUZMfEx2IxxjLvhE0/t/hLbXe+UoEsZGeZP0RjLLGTmbX7fvwh4wqzSrApX6lAHrJLFI4xzLxZxSnauECot/sOta2FPiqQiTIyTPwZFjKFtzJKvdd2PmLNgVyUkkl8ohmI7ckIfEnbmX6YMffABzDmApYrtMfWNnak3PGWQDrKyljmkT2+0ZYX2E3ltyFlGvJRgW9gLPFcVdcaysJKt5YKFHqm8fnGFPgIhplnuyqqFWp8mWVBICUlZphwfM8f/1tWTB+WgMsT+A2GGRtnIKJGCPRaw6808B9MxBwrIgKN1fAfDGRSdsVkV4XtGctSvyAZWUlNcXyII5wUbEcfrXYSaA4KhhtTxPN724LlCaRSHobTnJpJSUqki7w1wMqsp/KtsBcOoVdodD2BjFu7Jc8RTvSQazbm5vb88UMVwYwmP+q52rp+I+2IchsmMUKeKs3EWOJqwRD6uAbXkmn9IJB4RFvGh9lNqlmYTxRKiDlWgzvS90DuETnC2ugMAsWACdK9MvRE8g+ocqc7AulHVO4m0zjDhH0CuUUNTjucEPgBlFUxfgbAmRMTx9JBuStd3vEHaMuwFsQ11FVRUPxv3jCo5sAnIApvR5hhwmRRUKhOY9MMUwL/gPaAXQfborUYukCg36Cd+wk0AWUsY48YnlJjPzrwFbYMNAPKRJR8hUDpC5icJ+wv0Me91BrFxMMiWHIC5icDn4GqXcQaZCINAQIg9AQNzZnNd6D4IKEs4ZgAasSkLzMC/4GCrAgyESPIcTGoAjV2536E4x8gS9jlOAotwAwo8CNoOqhg+EQLp1H6MaZ6f4J89YAxzJjrsH5r6GsV9SkycuIkUJj1VOesbWMWEkjRH4T8oeAoxAEYYwm9nUXgnZgHlCMtQ9YuusyiOAkVxhLuO2rZHwKpJZCjNwu5WtFRaAtiTFjR00kh5CANbVmSZChzIPcsvMyicRYqDBPrnETgcZiKljWSJB9kzsKjUsyQF+kgAh2DFGlSkqRKIyAkOF18lpxg1Cc6J1m3Fm0Lki+QpB2BPIv4yFevMctyTqi3u4bWLEna0NDkoWPoAolRxmTfG++pOWZImGySJAtk/bFdKXSBvIZxl2uIYWa+Yyi8CfINgSTNWC+A1KhcgPbAMHGbY+4QMm9Zcp+QO3eFp2Is8VedDum2hv6gJCmQE9JrVyBfHUCMtaVkh8wK06okyaKhPXaHGD9hFugQCs2CxGeWJOnLHEzj7uCogjChJfYQhM5oH+Q+Aznao9wQQr9S7kD+JoSYyEX0cER/twWpR5KUPz+gof/qFnEBxljCcEecu4Y+hCSZKIZElVazyDNBYpAfL4isshwAYcYJR1C6DJNpeUeOnHALkIT6q1kpSJVXiCBoT8h17P1TSdEJhGqAvGwgR0tqKKVvq2p+W5CqrhFRRHsIYu7DCd8JySdHbi8eQ6CxUUTcsINUfSMhCkteMLkc0F8C/YaUM14jRxaisaWjsovCajEEsn1RkLtcQZ7TAdeooa1KkUqWV+IxhLqjomQt5kD89FoYoQ6EMLNjzx8/VOFvVpD4zFJkQBp74dEwcRwk0ILCOBRiwkIsf1cLqS+QoW+ssRRuTdlX2tFYwiZIWCsKY6nTfwU5I/5eF5KhzJAhC/4G0COqaJl4GxLlIWHQhyDMPMPfV0O+XoakHU7Q4FeKJjsz/kASIiyO8DaEWMLfRfKW7MGsmgCpcH5BghTWYEodUNE+nIGmZ1gciRGGmGPhrTUNrWz9QH40HY/qRFSsoQTjEEdWWTBMGMYbDS6BlAikZ6kUsYsGt09FfYWQJ5BAPZUaYhl7ebtayESlR7ZaNHot0f0MpEIkpRBLbOTt5SAZ6wrZkVSfRlPqrIq6ipYcDTTCiSKZDjGRU9OEs61AtiA5sqVMIzQ6xy1Gd6KYpBiLpBrDjCy+BvZdkAeUG5Uur9Si4VesomfCKYg9uyoioX9AmDiLr/ZoaJLUWNJraTilpKWjrxXdXrXCtCCkloQaYAbIKPiKYRUOSZH6tHX/jcyccrzG16qiH4yBhreiWKLcCDmr2rm6T8iAJMbq+qFtnHBp3U4Q3QyY+QJzU7GkJgViIhudueo1JEOZIy8e4rW0jQtfmYo+vMVgA3USqo+L5eN2iGWUc0Wg1ZDCsqKNAWk7cwxPAS1jA8bPCCTY+RBm1nLVPkj50wNyoo2FDEfb2msFZFu0Xjkmxkei+QHkI7lqHFLRskZG9Oe94rW9BD4zMMQCDfSAK4gm1k8QS/zKUzEKt0IWLB16dBaFtN3LrF8BN1UDxt8AJNr0jEBMSxxNRyObCOTiCdecrpzRhLadUtIbUEhmLDXY/YWTUzdfhEyao15ABiUNivan+sLpy4wSmscdbl4hw61hWwPmUQ7h0HzIEXP09pBC3uP2mn7pcsZrWs5Q5uTLN6DnctFCp1+iSLzmteGYqCQF7ZfBlpJ4g20AscTtHBHkHEg+L3Ez/1143seZU3vcHN+moGGnPANOS4uAFkMs4RFHXYHMxCtku9LbP07thRuIYS5Q0OqY+An0IRJwSoIhNcQ6iPm5WkjznmDnGeuKlHmM9sg7jEGOV9g3N+BDRbQUYo6fH0I1QGp2v4/KVUJ75nenzAEKG9lS+MpBT9hSROQqVZBwYwo/o4d8lssVuNKVaA89xU0r7ByY0WTAMV4kIU+EMGEYP4TaA6lwfsbVbi9Xbu2lh3hsCpv9SAz4Hw8R094Qy1jBzwIgO3exUnnjtZfOQaHx/VXgJzLoMhJztJcglnmBn6eB9Me1Mi1vlGxBe2pKSUPMsQrNWkxYOeric+tGUClxhljGZ35qhNyMSy04Q52TU3vrjZ6zQke2wtsSfxn0VknQmSWBmOq46R1kTK5UtHBu7a2nGIpVhoKzLVozocWgfXVAwnYRKcjWuZklJHDjKzpO7a0bnsWnKnjVVwptS3xm0Pb0jIirFhJ2SuLm3RHxLpRUUnvsfxiNwue8KgPfm8QdaAYIM/pwszZER9wny8tqb03ho8+ibNzLpxsGt2rg/8iuisA2g9wxN+tH5Habonla0J6a0Mc3r+z8v4YMPjHKJPAfQabETX73W0192kuvjdLLQr3dla1hRc95GHyQFUjku0NehJdiGvla7pIlt/bOORawvU9V9lpKuWdl8O4y5RDaNSHnxYtKcLsOt6C98vQJfXhI9SubI88ECTNrjY32lKSQ0B0QS2zPzksDiCIukvmZtTf+rt1fLYXiGlG2V+FDIyZcMnbW60QSvLNIIczP8TJ9RHLWuEfSgLTXzUGgRkJf2cGEaMh5pK8clq14/MR5GDtfuqXoPBQa0gwv20LEu8bNpMxjNL85KP1yo7Mg0NgNby9EZ79ycfccfEy0Z7M3EIrSVPxGzlF/SsZWd7lamocRvY8OIOGWIngZMYJG4xbZUuYRmlNKP94xicqfSCPK22bv0HqMrY9KzzIJP9ACEGbm87JwhG7r+o07ZKtF8/g3FN407W4r72uJkZZx1dh7wE1J/LeDnCgvXw1JcoUF16Ltz0+pQwQ558mUB44ohn6hsTvGRyTBXSDMmMrLViDZ3OBm/kfb3vg9Jw8dQ+WFV9IvY3slybAMYon1vEwO8lEukJQyj9F2X/+0061zifLA4at76pZY89rG/tvlYaSYEGIIM9fwcteQpsXX5Pq0zT+57WUr79vVcGOKJexiYpvhMNiOW8ohOUYQJuzmpc+Q6sWXoczR9r77Uw5Med6Hm4Yl7GfCP8Nl6ZYkx3JIv3gh9ApIu4X3g9peSq3/PeVpq7rWUGYXyWewd2yZBy2x0fB6O5JlRk4gL8LLLCDlTNeILkuIGVtqpHCE4nXouzlpS+htieOZOaM2N72MKTFz50feapOG60qS5lyIZT7h5a4gGesKwS3qtbSdox+r4rA3uznRy7iqfzDe10mg9id5OiBMfM/LX0MylBliK5oqT9A2ro1Shcr2GVhueD3RF/6D8cYuYp0cZ5JoTs1AroSX24XsQmxljRdoGwn1aNPK5thDEFothjBhcZPGM3sqwZJnkumWEGZ84aU1SKo0Rmit5rSBUrsaUfZWfj4wPiNLeGc8dIUjDyNXO2IRvPQb8loiK1BC4893YMrWYstaufHQJVFeItlWIRrlZSgQnVlgGcsSjSf0jNK6nUDZOAMmplrCZeOp7zGTpDsZUS8vitDfIJUsb4hr5y3AcnRX2bmEzzee2n677Joh+bpIFMLMgBdC34VkEVZb12/q0/CuKBurOCdzJh4y3vrS5STjq0Cy83L0kHLHW4RVs4b3WuGX2+KojKeevMsckvJkxMoVrzuG5BJVZesHrwUbv8IfCxPuGW8dZMG5JOk6RKPcxNCDIeMR1c1q9A76C+vNugsaTz24cpK2Ql4XN7OCpEpjBJWtI6hPHatCt8bE68ZT7/0ziZFmlXduQyBMkHJzi5AQawRVUoMJ9PMGFHrSlvjVeGk/A6xHMv845Ly4mQ5EZxNSpesbOUEJv6jAsQ7it0w03nly6UyS+4YQS3jNjaKUFJJFSBnqAg3+dAXu6hCNd/5QjI8cJPv6eYE8Oz+EOg/ZiYhW1wRoKy8MWu+pGq/sodQRTjyMNGB6RiDMvMgPoVdAyqwLRJRHY3N0QmHn8NrGE5f8K9pD/yNtuB6kVn4IPRSSZpgioMzfAKLQEoV9uHc13vcq/4pw0pcfQprx2RBL2MQPoVIguQX0WRpLoMaYanXMpn7GeNkDdp5YGunGm84lbRkbIAgTF/FzAxCdaXlDPLsAFVbQvTy1NC/Y8Fk3/2kTKi9eJtG4ECVG6Nnrlb9pKWnSXSCWOI2fZa8f8t/CaUNjCXWntG4ngHT1+Q2H7jIVYsf4EL+piHTE20GYMIwftS5IHuGUPV4B6plCPhUzDxjb5y9+E+mNFZCIUMoRgVZDJiqc/8Fspb8Qy1xpbHYRqVAHzCYd8jEQtjGaow1DSoimkuUVje2ZQk7D2PuoCRuSLukm05DNcPRhEL1gwRTGbKUYYuuN2nITlVkVQ/pkXsPUQXrFUShKE1O9YFLnCRhK9VPAvX8qKe7M2Dm4eyO9slohR6V47h0kY10hlrnnhFC4tXT0tRBnaGz8l8fMKi9T4gyxxOdcTRgyILGUPz2goUtXQCYWGhv38bmCQ/qjTVaJWQP5Mq56DWmiqFB+EvPKgPU+nMHeRaRnhrchhBlLuSIhJ0J0xbsNQvkfCKE/9BdgGUsU3EmoEiJE+maACSDPytVQMTWLJKkFCIVWquiXWBA2eT3SOT0VGvKJXCkKv4GkH2aIZMUaSkPOiy775xu0i1jPJp0zuyoKGnZy4uscIWWkISIpDMkx1OgiRk+DvspfSO8shyR2la/dQfTqBLJoyNOoqOu0xEZUSWqSSfesgTDxveI7hlU4psL5CYH8D4TQM6LrkAHbH0H6ZymkVs5+u2FIywJJzhrI20YVeSZIGkItJh30Q5DP4UxR+CbkucSxYA2NYXaOiilVGrC/EUgHfUgJZNa87RiSWxwVLWsg+YcSzb4fg+jmQC9eqoeUK+jx8/a2EN2UMNoN+VUVbWRDtsHaF5EeGuUmyFKy89Y4prAwvh7yElFZxknQW0gXrYB8kOL+qyFphxOE0TJkx9EMOxGzZKk+sgRiifX8PSKkhcyimAnkaqNhxlSDjQ0w6aKHKSgz8/nrIURnEUX6MgOyu2jeFeOl1lvqIzWYTfF3A5iMdYko0g/nQEJUjygiW+FtsAlhJn20AvIzyoFfDSkjDRBF2uEMyHdG8TmYdjUmR+quDWKZW53wjRBdyW6LIPoBIVRKFJZ5B3Mgn7fIKkfXaaARxX5O2CRmp4JYH2QP1WzoiZB/uT5Jsn/vN8FYbng54cNyQFKmIW5xbgZ6Wlkl6XlDplK7E9SNQnTfXcISlmFWL0lGbqBTUo58bMyYXWJnkHZllaRrxzCz2hmbxySPPTK7QnWJkP15t4UseV8MczJzRrFLgejy5wdcIbzFYAM9yO+OkCTPOn/IzSmHUmgO5rlcoUOQ+R/qP78gSeowUGY2OIUG+WL0uNzgYiGDyypJ9+2VAszFOKXYMjEZyhw3sMwjkNYlybPeBGQRvXGKOjtMfDYXuDlIDyXJNA2UGVuUY28Ro3O5wD9AVi9JtoWJNBY4R60LkztJeNUZ6DHIkf//eAgT23rloHvH6FzCaw1SW1Y5unYDtYRjysHjo/QPzHCyiS6s6Am5eEkyOIxl9nCSmi9G71p0u4F4qbQ+klkUOyT7zzlqGCDdlODCLUVAfHSgj0Q4SUH/XTmbQpdBqdKYomK7D8hL9ZF7YH7YYb8I0oXFdjGQABPoIosUdFR7ZSg5rFjXQR1pw5f4AYYZG5XTach5IF0osw/x8cmYSTsuWbcWUegJSOfyIcoUdCr7fvwh4zhFokpRuvzpEf+hFsOExcr5bbpcineJKtKG35CaYoW1WgwRgPpFlC5xMz5DkA0wW4s9BKEIVEsonSqNSPIVrlCFscyZSoibbhiln6tHfkKlwo5QDGqFMJ06TUjyDz6+BPOFSpAx1eqUksL0cWZa3vEN/qywllkkCkXpMpwuMRGfYL97YJj4ravCUOeI0x2Zsj8QH2KFbUKJ88MI1IjTOl+SD1D3lWASX1sgilApdugSw5B/azfYI1FC3a4dWg+okt0WyXd9TwQ6cbGMbyu2aBrNe1W8bJF6NRmsJT7LLhbVuVnaorV+yC0UlXbHUxvIMvoq0b49gdps0jpF6pOhzPnvAnJu319vYrBM/FbVtYaycNS926a17sguClcwP3HC0m2dBsyMCUrAhGrg4LANsaa+iebNUBfkKlyzjRuTSw1uH7SeKp9sa4iotG4noPQyThwqcfbnnSYGfIFKyAP7Px9inZcJWkrVVwptMamBvZPvcAxPZMB3rES9bALt8BmGuU8vFBiwJX5dqbDUwAg9w1/YzzebGDQT+yuRz7kBH6Emg77bRQpN0ZijCf3NNzigT1oY+CcqwZO+cqD0Q59g1Ab+hUr4Q/nLHD7AnAMV/DpGKD6lCKpISr8TTgxyvHS539UU3hJHKVfsAoXXJAimWdny3tcq/FVFngkSd1Dqu3cvlIShypWMrOypGNYbuYgeyj1v9/oFcl5KppQHmsGuWJ6RctMXfsEahbE7efLU871Asf2yfT8GkasoVSwUHDXdBCH0jo49RSmypSXP771drWK9iTko9930+AnV7LwcXVbudnC/tDnQL46oadTedpef/WHvYBvs6S7XJYrDeiOKocqVB/atOyb0B2cl/JJyswZrungTh2TCMOXaxTZ/z0dPKaljdhjDXKDcrK4zN3HJx1Uuf421rnDChHr0Xdzt8HwbV27W3qmauOSkane7w77+Tsyq1m1TePiL/+V8P43HT9/wHhpR0UvlEH5tU5uJS265NyqOKJV/M3HJF1mtki9vauKSna1OSZikuIRl7tgb/yanZExV1xNxCGbMnYGSMQ2aOCMT2yKK/VSc0kUO4fc2cYatHYuSNHcaV7CEzfepfL0mw0KminPKlXqZWRs5HagqP6+gJWw6fhUXlSc1MGH91lXcVJZsjQmThq7iqlJkHgtcQuwhCFXcVXpchyWeOyMmBNau4rQyg5kfmXieGUsjRs+jqVPFeV1uIm/pRT+nxRaZ2D/cYkUfdhNxw647Ko7scpbxUvmA1frv8PuwhNfrFX3tvof4C57X3Gcc6yD29Q7rBUcaYvw+U/BZ/T5jLKG378fEtnX4fWYUvp/Zuu93xL7fDfh+TLjkByyVm2Xc9QOoyvfz1YHvdz7fL6dm7tHvowP6tIXvl3Wzvl9jrft9WbMu/8z9vqzXt/jzO++qbySqvJoQvb/hil9arf/8pwJGNWNFK3a342RbjrdiZ2MW5zP8THTNWduTX8NJX50Bcx3H0z2YiK68aMQ8XSpiRkH8jKAZ8rBsx5nhZJjWHzIQ/+as5+JgfzoCYpk3JEbY9IPsqRWas3oYKSawH04Nmc7B/0IeR2KEnZwg3mrQBnlYdObBavSZ0LE0tGYvu5lDtiwxWoO4SbUmyGd4X+xM9Gr0d+IWsy5D/l1i5ITYizTArP64mQw784jVYiCXITF6UxChLDnRAL34b7JcncF2nGWUBPkciaEagiRGSH5tOWGyHU9HU5azOW9Ih2RGZyFnlV5Dpo2lmZE5jNR8hrForDZIWMiUGcxYCnmM9PpgZTLvxG0W9RhoFYabzLCMoRAngcquGMk1ZsEkdmOovTeDmULq7Y7M6ANETZfcC00OO3KNwftCdqZk5m0lQt4ht28fwcMQYnD///GQuUsNdcGQL95Paq3YZfI4ryEzYF9ioC3KDUtYBlERTpRaD75yYbbjLKwVzBLlhmUWYVzEOrsqMhtMGB+9+INavYFeV+1yo/LzgTETuyCqUmajqeRjEIGo98WMUUlOZlzBTF4qry0m8fF+0OoNdniy40Qx6nbyKmCsyecoikH/hik4dNkxh5VjVEqcpVXAGE5GUoDpocH2S0nPfoGe8HFZbXE3Pq4D+f9/Af2W/GBGGUjtLSsaTTkfA/CC7OsrTQz2OtYrP3rDzI8gVSarQYTw0YPviOs14AUqCRoxRqDq/i+p7rznow2HAbMjZ4JiDa4ypFfrAaklloLIqSVbuJhUyATbnvoPA7bMI0qKWuJslLrHXCnNGk0FDwPxI5uL76HQETNKjsx+EShz8ZfiRtSdDzy05ahNS+cr9PMrScqEYTCz1zfJEt2oAVPG085uBHmzbCmuVejEdcuSRTLzKczsevUuROdg14ZDZON5dlZwZmxU0vRicGb+XXahAkaPpJDVQHzJxtQkX0XBR1X5+cBYnqgx4oxpvTHXoU+sRg+bMdS90obz1Sm8JY5XEvW2LLHRBnPeh/BbG9ehDlyax+Jmm5PV2VUJsqBi+JyLlCnqxBNtMLXV4Tr02Xm48XS1Zh9ZvchdrhXDRkeo5Coza+0wZt9fLTjkP9u4DXXg6mr0osbSeCmy1hHWgopph5Rk3Rv/JmeZd2wxta29bpehzUdRhhlK/PPI2t1frJiex6H9HwSyRU1mHrYYc94H+1Mbl6H3TRtPt21HvHUWWZmRFX8DKLaW+HylSr5+wKjsMeb079RdiBoysyc/Hm/dJbvwtIBxZGVxaAueQaAU26mctpKxj1bQJvPx+/VWk5G7C9G3W7GzB9/OO4Ya0zQPGUXpIAK68qo5a8ja+202WTGugTmFldaFbnI2Ig62y5j578drTf7WXda5kAm/IxufOqFEMbfEGiVrmTHVNmO220Y97mProp2+qNgzY4iSty3aZ4xpZZrDdK+Pl9UqDhMtc4CSuUwYxoMxu279JV1py5SklF5F8ZjIhF5K7jKxfyIPxph9eK6g7Aqyqa71czd8FmRmtZK9kcaCRvkw6oCJ0T4qlsfMyvmG11HNWsnfDzgvTpRSdl8d/KhaAnPWO9BdphS/DYW36K5k8NA/n5u132PvxAhlV0Vk1WU7TVY8n+oclByu0zI28KSUKpn497QUF4moevpH/qE4Z8bSRSppfG7r4Wrtk/fphYL9e7/FQX3fpkGB1P2lD3HrFyvurysilCqZPOLH4W3t8z/vy5rmS9btvFs+8K+O2N93W4y3yqsJ48TORk5NEyWX9/0YRJ3Kzt9hW9u/dX+a9TTokOura6tduIUXNg5tdHiH9n8QKOkc3qL7zzrjsL3Mvb2V2NdXCirPtqh4S27qvuWD+r7NAX/W4io2drrbNQ7+2dNWMjr2EIR/YRmfHXM4Vt3993+trHl2aoqrlxZBGjyelyy+1TdqPWm8Zz5/43TLaGZi99qVpF4pE5YXdJbVVS/crlZa+cu//MsrO/1t/eVfTqKVVs78X+ZvhFnDNWxBSewvsMRzohD5u01GSe73eRFv8/nhliKUBO+EJd7yLqc6aSXHs8/4OT1J4hjXrST6bqa0cq9R8N/Dip5KskcaLJlZuxQv8TPMnDFiJeHvc3hX5RFqsMTt75NdyfoqWnJ8y3m4nyU+a7HKC+oqqd8bZmT9+3W42f3c8bpnoOR/V60tJVviukW40/2sejczUH5hnREz7Qot8avbdP2IR6h8xtpLtrhlJra5xTyYuG0aLSl/8j4jG7J73pDwGt0yE4bNbgbK1xx69cxY+uyJorLEX1t+lU50R/miQ58xMxtuPbtomPliWH/2cLGHIFS+aqyDuJlzW/Wxr1wMm/j3V5l01VcKbeXTrpZdJJ/fsoR5lnBsEw6ayngH/16RLYX/nPJ/7zO8xWBmlN3UVTPhEjOauBry55/a5/zFEmavfOa9fyopNrOEsFH8vY8wsFHcakMTAU3EMt4w4d4oBsaE+ZYx9BnYxuiwk1Mp5X/3qqXXLllyCZ3oRLgxpfqwU1InOnFtJUs2U/n5wHgLqlr/V+v/w3UP;" parent="1" vertex="1">
          <mxGeometry x="185" y="464.75" width="80" height="80" as="geometry" />
        </mxCell>
        <mxCell id="1slNe64gq0bpDraKGNJo-8" style="edgeStyle=orthogonalEdgeStyle;rounded=0;orthogonalLoop=1;jettySize=auto;html=1;entryX=0.5;entryY=0;entryDx=0;entryDy=0;" parent="1" source="1slNe64gq0bpDraKGNJo-9" target="1slNe64gq0bpDraKGNJo-12" edge="1">
          <mxGeometry relative="1" as="geometry" />
        </mxCell>
        <mxCell id="1slNe64gq0bpDraKGNJo-9" value="" style="shape=image;verticalLabelPosition=bottom;labelBackgroundColor=default;verticalAlign=top;aspect=fixed;imageAspect=0;image=data:image/png,iVBORw0KGgoAAAANSUhEUgAAASwAAAEsCAYAAAB5fY51AAAACXBIWXMAACxKAAAsSgF3enRNAAAQWElEQVR4nO3dT6hV1xXH8fOM8hIxin1BCv4hGIgDU2JpJ9phMonUZibpJHRkKtiRkEJtoROFFpwVUmepkxRnTYqZxNIOqkMNKNiUTvoMiPiHp9bwGhrDunji6zvvnrPOPXvvs9fa38/wGtTne/eX3z1nn7Xmrh9ZeFwBgAHr+CYBsILAAmAGgQXADAILgBkEFgAzCCwAZhBYAMwgsACYQWABMIPAAmAGgQXADAILgBkEFgAzCCwAZhBYAMwgsACYQWABMIPAAmAGgQXADAILgBkEFgAzCCwAZhBYAMwgsACYQWABMIPAAmAGgQXADAILgBkEFgAzCCwAZhBYAMwgsACYQWABMIPAAmAGgQXADAILgBkEFgAzCCwAZhBYAMwgsACYQWABMIPAAmAGgQXADAILgBkEFgAzCCwAZhBYAMwgsACYQWABMGM936p4Nu07WG07fLLasLDT65eosnTpj9Wtcyeqrx4tGfjbImc0rEgkrLYfPVt8WIkt+9+qdh3/sFq3cUvj14A+CKxIpFnhqfkde6tvvfYO/yIYhMCKQJoEzapp62s/bbwG9EFgRfDsjlfcfU0hrHtuc7XlwI/tfyEYDYGFpBZ++C7/4JgZgYWk5KMyLQuzIrCQHC0Ls+Ic1kj+8c4Lbr+23acut950qFvW0sUPGr8GtKFhIbh7F850/pab9/OxEP0RWAhu6dIH1Vdf3G/9bTe+fKDa+PIPGq8DbQgsBCeP4Ny78PvO33bh0M8brwFtCCxEcffCGVoWgiOwEIW2ZW19ndPv0COwEM1dxcX3Ta++UW1Y2NV4HVgLgYVopGXJaJkuC4c4lwUdAgtR3fnot52/vYyfoWVBg8BCVF/e+TctC8EQWIiOloVQCCxEp21ZWw681XgNWInAQhL3Fc8NyoA/xiijDYGFJB599vfq0WcXW/8oGfDHGGW0IbCQzJ2PftP5R9Gy0IbAQjK0LAxFYCEpTcti9AymIbCQlLSsL+8stv6RjFHGNAQWkrvz5+5zWYxRxloILCQno5FpWZgFgYVR0LIwCwILo9C2rE37DjZeR7kILIxGs6yC9fZYicDCaFhWgb4ILIyGZRXoi8DCqFhWgT4ILIyKZRXog8DC6FhWAS0CC6NjWQW0CCxkgTHK0CCwkAWWVUCDwEI2aFnoQmAhGyyrQBcCC1lhWQXaEFjICmOU0YbAQnZYVoFp1k95HZHtOXM7+T+xjHO5de5E9fDK+cav5aRuWfJIzjR1y7qtuFAPP2hYBZH5UtuPnjUxY4plFVgLgVWgbYdPZv9Fs6wCayGwCmTljc4YZaxGYEXwvy+Wsv87Wnijs6wCqxFYESwvXu18o43Nyrx0WhZWIrAi0bzRxmZhXjrLKrASgRWJvNE+f+/trJuWlUme9y/pTr/Dv7nrRxYe83326YVD73Z+XJLzTounf9R4PSdyQPSlU5cnZ6/aLJ5+c3J3EX7RsBzzMi+dZRWoEViOeXqjs6wCFYHl39LF7nEt8kbPfcaUNnw3c8TBNQLLOU+TPDXhy4A/3wisAniZ5MkYZRBYBfD0RmeMctkIrELQsuABgVUI7Rt9q4FJntrwZcCfPwRWQTTz0uVB4tzf6BK+Dz/9uPH6aoxR9ofAKoineen3Puk+4sAYZX8IrMJ4mZfOsooyEViF8fRGZ1lFeQisApXWsrYw+90NAqtA8kZfvnGt9QuXN/rzBmZMaR7XsXDnEzoEVqFUD0V3jKbJgawsY4xyOQisQnmal84Y5XIQWAXz8kZnWUU5CKyC0bJgDYFVuNJaFgP+bCOwCidv9K5Jnlbe6JplFYxRto3AAmOUYQaBBZZVwAwCCyyrgBkEFiZKa1ksq7CJwMKE9o2+9XUL6+1ZVuEVgWWQPJQsW513n7pc7Tlzu3rxV3+rNgV47k/zRt/06huMUcZoCCxjJKx2Hf9wcjZKjhuI+R17q+1Hz1bbDp8c9MWwrAK5I7CMkTlVElBrkakEQ9+ALKtAzggsQ6RdyZyqNkPfgCW2LAb82UFgGSLtSuZUtQnRfjy1LJZV+EJgGbJZOTkzVcuyMBiPZRW+EFhGyMSE+iJ7lxDtx8tKMJZV+EJgGdF3YsLQ9sOyCuSIwDKgT7uqhWg/LKtAbggsA2aZRxWi/bhavMqyChcIrMzJCfa+7aoWov14aVksq/CBwMpc17mrNqFalpeVYIxRto/AyphMRpAJCUOEaD9eVoKxrMI+AitjmvlTXSNhQrQsllUgFwRWpjTtSsLq1rkTjddXC3Ity9GyCi8z7EtEYGVK067ko5qm/YS4Ze+pZTFG2S4CK0NySl1z7UqmhFbK9hPilr2XlsUYZbsIrAxpngWUZ/1kSmiVsP14+TjFsgq7CKzMSLuSZwG7rJ6okKr9lLasYn7nK43XMR4CKzPadiUTFf7vtUQty9OyiiXFA95DzsEhPAIrI7O2q29eT9CyPH2cuvfkGmAbxijnhcDKiObC+Frt6ptfo2X1whhlewisTMg5KU2QdLWbnFqWhZVg09rqSrSsfBBYmdCMP5bJCcuLVxuvr/TgynnVnbzhdwxZCYb0CKwMaJZLVMrJCerNxwMPkpa2rEIe7mbA3/gIrAxo25VMTtBIdY3J07IKxijbQGCNLGS7qqW6k+erZTFG2QICa2STjxod7UrmUWnbVY2W1Q/LKmwgsEamuWOnaUur5dayLIwfpmXlj8AakWa5hJyr0pzIXkuqllXaSjAL01W9IrBGpGlXmnNV06RqWZ4+Tt2/1B2+DPgbD4E1ktjtqqY5LxXiIV8vH6cYo5w3AmskqjuDA9pVTX+NadipdFeLVxmjnC0CawRyzWh+x97WP1iuPQ1tV7VUd/JoWYiNwBqBdvxxKKnOS5W2EozRM+kRWIlpl0vcVYw+6SNVy/K0EqzrDqu0ZMYop0VgJaZtV/X441BStSyWVSAmAiuhsdpVLdm1LJZVIBICK6HNilYx+SgSuF3VaFn9sKwiPwRWItrxx5qxvUOoTqUnalkWLlqzrCIvBFYisy6XCE1zXqqaHGztDtc2Xi5as6wiLwRWAkOXS4SW6rwUyyoQGoGVQC7tqpbqVDrLKhAagRXZZLlERu3q6Z8Xv2V5umjNsoo8EFiRaVrKw08/TtauarSsfmhZeSCwItKOP773SbjHcPpI1bI0F601Rz7GxrKK8RFYEYVeLhFaqpbl5aI1yyrGR2BFEmO5RAyagXVDWxbLKhAKgRVJ7u2qpjmVHmLCAssqEAKBFYlmUWnIETJDpHj2j5aFEAisCLTjjx9eOd94fQypnv0rrWWxrCI8AiuC2MslYkjVsuQIR5ehjwWlwLKKcRBYgaVaLhFaqpalOcLBGGVMQ2AFZrFd1VK0LJZVYAgCK6BN+w6abFe1dNeyWFaB2RBYAalOtUeedzWU5u9Hy3qKZRVpEViBaMcfLyku1o5J/n5dz/5Jaxj67J+2ZeXuwZXzLKtIiMAKZKzlEqFpJyxs3DPsDSgtS3NglTHKWInACmDs5RJWsawCfRFYAXhpV1WPZyAfBDj0yrIK9EVgDSSnsrvaVfXk/8IWaJ+BXF682nh9FqW1LAb8DUNgDaQdf2yhXVXKC90hJ0x4alma1smAv2EIrAFyWy4xlITCGBMmvBwNYIxyfATWALktlxhK89FL8wxdX16OBjBGOT4Ca0Ye29VYp/RZVgEtAmtGWxWnsL21q5jPQJa2rELz84MmAmsGk9VdiovAuQzo65LDM5CeWpbm65hcL2TAX28E1gxS3/qPTXVnMMGECS8tS77vjFGOg8DqycpyCS3tKf0QB0W7+FoJxhjlGAisnqwsl9DK7ZS+l5VgLKuIY+76kYXHHr+wGOT/hi+dutwZWIun3zQRWNKudh7/U+P1laRd/esX30168PXbP/ld5x1YubB98/1jjddzovn3DUmuM946dyKbXQEx0LB6mGz17Qir5RvXzLQrzUerMZ6B9LSsQn4eUpEbJ9uPnp3cRPGKwOpBc+vfyp1B7TmypYvdt+hD83QAc4yfh22HTzZe84LAUrK6XGKa3E/pe2lZmmclQ+v6ObWMwFKyvFxiNQun9D2tBLPyc2EBgaVAuxpHSSvBoENgKeRysDIEeXNrNhLn8Aykp6MBcvcOwxFYHeTWtEwKaDNZLmGkXWnPkeXyDKSXA5hy1ODz996maQ203vTfPgHtwUoLLJ7Sr1tW22n8umXdznwyhoRWqDNSe87cbrxWAhpWC2/LJaye0veyEgzDEVgtPC2XqEYYfxyKl5VgGI7AmsJbu9KMP875lL6XZRUYhsCaQvPYilxot9KurJ/S97KsAsMQWGvQHqzUTBbIgZdzZLQsEFhrKHG5hIVzZLQsEFireFsukcP445C8rATDbAisVby1K82b18pH28rRSjDMhsBaYbJcwlG70t7pXIqwazAWT8sq0B+BtYLmmTSZIGDm2pWzc2Q1L8sq0B+B9YT2sRXNBIEczO98xdU5spVoWeUisJ7wtlxCd+3KXruq0bLKRGA5XN2V8/jjUDytBIMegeVydZevO53TeFkJBj0CS/4vvN/P2nlv58jaeFpWAZ3iA0v72IqVXW9bFXc6PbSrmpdlFdApPrA8LZeYnCNTXLPx0K5qtKyyFB1Y3pZLWBt/HIq2ZeU+Rhndig4sb+3K053OPrQrwSwsq0C7YgPL20PB3u509uVlJRjaFRtY3h4K1tzp9Niuap5WgmG6IgPL20PB2mtxXttVzctKMExXZGB5eyjY07W4IWhZ/hUXWB6XS3i6FjeUpmVpPj4jT8UFFu3KN81KMMYo21VUYMlp5652VT2ZBGCBtEXaVRPLKvwqKrC0DwWbaVeKtnjf0DTRUFhW4VcxgeXtoWBv1+JCo2X5VExguVvd5XT8cSi0LJ+KCCxv7crz+OOQNC2LO4a2FBFY3kauaE7pW1qjH4tmJRhjlG1xH1jakSveBvRZeqwoFpZV+OM+sLQPBS8vXm28nqNSxh+HwrIKX1wHVqnLJTwN6BuKluWL68Dyt7qrrPHHoWhbltzMQN7We/3+aNuV/KDuOXO78bpVVq7FpSQtSy7Ad7XTF3/518ZryIvbhvX8voOd7cobS9fiUuNjsg9uA6vEU8yeB/QNpV1Wgby5DCz5ONj1ULA3nscfh0LLsq/4NV9e0K660bLscxlYcpG16zkyT0oYfxxKCS3L88++24Z169yJxmte3Xz/WDFf61DSsrw/BeD5Z/+ZY9/b+OvGqw789+Y/q+UbV6vndn+/esbp0gH5P+nNP/ys+s+1vzR+DdPJv9fcXFU9u/M71dyG+an/nTX1z8PDK+fdfvfnrh9ZeNx4FQAyxEV3AGYQWADMILAAmEFgATCDwAJgBoEFwAwCC4AZBBYAMwgsAGYQWADMILAAmEFgATCDwAJgBoEFwAwCC4AZBBYAMwgsAGYQWADMILAAmEFgATCDwAJgBoEFwAwCC4AZBBYAMwgsAGYQWADMILAAmEFgATCDwAJgBoEFwAwCC4AZBBYAMwgsAGYQWADMILAAmEFgATCDwAJgBoEFwAwCC4AZBBYAMwgsAGYQWADMILAAmEFgATCDwAJgBoEFwAwCC4AZBBYAMwgsADZUVfU12BzcRBOZlawAAAAASUVORK5CYII=;" parent="1" vertex="1">
          <mxGeometry x="530" y="467.25" width="75" height="75" as="geometry" />
        </mxCell>
        <mxCell id="1slNe64gq0bpDraKGNJo-10" value="" style="shape=image;verticalLabelPosition=bottom;labelBackgroundColor=default;verticalAlign=top;aspect=fixed;imageAspect=0;image=data:image/png,iVBORw0KGgoAAAANSUhEUgAAASwAAAEsCAMAAABOo35HAAAC/VBMVEV2R9SATd55SNeHUuWOV+uSW/GZYPeeZP2IUuuAS+KDTeSETOeGUOeIUemLVO6NVvGQWPOTWvaXXPqbYP+eZP2gZf+kaP+pav9+Sd93RtN3R9R4R9R4R9V4SNV5SNV5SNZ6SdZ6Sdd7Sdd7Sth8Sth8Stl8S9l9S9l9S9p+TNp+TNt/TNx/TdyATd2ATt2BTt6CT9+DT+CDUOCEUOGEUeGFUeKGUeOGUuOHUuSHU+SIU+WJVOaKVOeKVeeLVeiLVuiMVuqNV+qNV+uOV+uPWOyPWe2QWe6RWu+SW/CTW/CTXPGUXPKVXfOWXvOWXvSXXvSXX/WYX/aZYPeaYfibYfmbYvmcYvqdY/t2RtNzQ9B2RdJ1RdJ8R951RdF0RNF0RNB6R9tzRNBzQ89yQ89yQ854RdlyQs5xQs5/R+JxQs2QZOGbb+mkfOyoheizk+2+ou/OufTZyfbd0PTEqvGtiuyUZeeCSuV6RN2MXOOVbOG4m+3m3ffv6fv39P3+/v////+PXOfp4Pn59/5tPsnJsvLj2fZ4Q9udduXg1PZwQc2EVduhfuN2QNpwQcz9/P/7+v7y7fv18fyIV+FzP9arj+N1Q9ZvQcvs5fnQwPBvQMuKXtvKuO3UxfG0m+WLVOmZdt2AUNluQMq5ouZwPNOwleTEr+puP8qNZNltP8luOtCniuFzQdN8TtRwP9FsPshtPM5vPs9yQNFrPsdrOs1rPceAVdRqN8x2Sc9qPcZqPMZlOcGQbdZpPMVnNcm+qeeFW9ajhd5oPMRqOspoO8RoOMmIZdFsPcp8Us9kM8bYzPFnO8NyRMtmN8ZnOsNmOsKdf9phMMNlOcGVdtZlNsR0ScqBXM5kOMB3T8piNMJjN79dLr9uQ8hiN75fNLpxSMdhNr1jNsFfMsBgNrxgNbxfNbtdMb17VspaLbxeNLprQcNdM7lYK7pcMrhYLrRbMrdaMbZZMLVYL7RYL7NXLrJWLbFQKaxVLbBULLBULK9TK65RKq1UK7VQKatPKKpOJ6nVba4MAAAA9nRSTlNDgoKCgoKCgv///////////////////////////////////////////////////////////////////////////////////////////////////////////4L//////////////////////////////////////////////////////4L///////////////////////////////////////////////////////////////////////+C/////////////////////////////////////////////4L///////////////////+C/////////4Ll5j2zAAAvS0lEQVR4AZTDhREDIRAAwMOJu+HQf49xfzt2ZgEIxSK3lVgFjiSQpJBICgWA6lHD+N9k+m/2oH/N2yx+LNus2qx7bPpsn3Z99q0OfRTQ48lcWWud8z6EeJNSylelXFiCBwOIARgAgLvUtm27++/ySfN37IfjeF4QRFGUkCwrQFVVDenAMMw/i9i2g1zgeZ7/CYIgRBGI4zghKcmyHBWgLMuK1KhpWtSRvu+HYYQ9HNGEZrSgdd1WsH32fT/QeV7kRg95yY89u0BxBQiCMIy+Czx3d3e3dUHj7nL/E0SmtoGGSW2k4z1ruHxsfmqYVCo9PBmcLM4ldYLt5SvAimjdFa0HI7VeKK03cS1wfcahWuD6Ay6qtQ8xHK0FL2iBy0zr0hmWaN2ClmBBS7CgBSxoCVbsf+u9aCksaH2D1g+lBSxoCRa0dpTWPteKY8W1kkoLVkTrsmBFte4prUcjtV4RLfZJZFp/Y1qKi2qZfxIVFu+W1jLr1g/SLbNPopkWsHLQmqZbL7enWwErfy0nWoELWnfWsfJH89UCFrTGqPwji8qP3y2zyhOt5PhaAasQ0bLp1nu7bu0sv1vAKhSgZbFO3xis0xXtFrDiWt4traWweLd8nQKrCC3aLV+nwCoVI1p8nS7tVr3MygOrDK1Rlfd1qrCU1tjr9Ild5b/ZaCkuey1giZbFOn21kuv01GKdClaZd8tv1QoLWstbp2vQLWBVoMW75etUYxUFa3m36uWvU6IFrIpwGazTDb5VB6wq0yLd2rZ1CqzqgItX3t98NBbvlt+qgVWrQot3y9cpsOrQot3ydSpYWmvcdfrAbp2uRbeA1YBWteLrlGoJVl1hRbvlbz5XAlajUafd8jcfhdXg3fI3H4Wlu8W1trNbGivWLV+noiVYTdGi69TffIDVBBevvL/5BKwW0fI3H9ECVrvVakGLVt7ffK5cGGB1BIt2y2/VwIIW75avU2B1oXVOt/zNB1haa9x1Op9b9eDvgEvOKq1TwQpafWbOqz9xKw3jN9tA+GarLmbXaex6lhDG45gpdnq+wzZtVlv8iwaJDhLIFMNiQYwCDApTXSbTZzyT5vT+0fYg65UOAht0KNk3ZXrRn3Menrdh160Z93wWXTTDMDTncrmW0ALMstvlQv9ynMvt9vx/uFMd1oXBtGbW86FpBIk+E+KFcCQajcVi8QSKOPpKMhpJCXx6RexG8PwPqlsA68KFQTdxBj2fgJ9mJDqTFeRYYj2XLxQHRCGfW0/EZIHfQMDQIfvh3CnAsmjNLqv2M5L0fCicjJfKxSFRQBjLpXgylX5JFD3nfyCVR7D+i2ABrdm5U58k+UOpyibi5CTKm5UIfx4Bc0jLhouMFg4L0ZqRO11QpNPVaC1fJIlCvhYVXqIoz2zdKcB6y05LxzWtno+PVbbqlRLoExmwUiy8IVIrM9UtA9ZbgAvXran0fHys6qsm14tjR6FQqggvoOs4Q93SYb09kNY0ej6Kkokkjj1TjWY5n2+tl0qlVj5fbjaO49WoyWmKWp2ZO/2VDuttgDVVd+pV2WrlYvGIyJcSsaScEqrpTCbTRoG+SFeFlJyMxUtH/qqLMcFDzc3GnQIsjNa0smqv+mw93iwOjGYsVQ1lFiVJYmjahWKxG65F9DUORRBRiyQTpUG/ulCOp16k5mbiTgEW0JqWO/VqJ9/ZLB4VzTivSnTgqKx6ealLzbXBp2Lrg95BNyMviavTV3kdVueSTgvhmpY79ap/DNeKx0WzkpH8x1cDg26E7BwfieUKg3BRq1PXLYCFAoOl05pYz8fb8Q5AtV5JFPG4nKKZoT2fs0EX594QKqV+XKlV6sXp6pYB6xLCNVTlSXWr06nGi7a4XKluqf5Ur4W4EpICI1QDzwZFDvG6XLRFXKA80+356LCuDqQ1mZ7PvHbtuk2Y89vhtqIsPOtTT8utIhY5dLhGqwYGRXEjFc/b3ybS1Nz0dAtgXUW4hugWWc/nSe0POy3boYpm1xT2MPNh1EylJzmMtSUEa6Sej8hx/LZNvVrRl6jd6blTgGXRmmRWvabtJYo9UYtsqWsLVlbNKtmeO1qq0qP0fM6K3Hk+Grfbr0KxJlBzU+v54LCO0i3SiaQntRvRXgeeqN9Qvb0lCJ+ykMLlpxBmcFqLuuta6r2JZ11n+WitrBdu7NFIvk7tTmciyYIFujU5d3pCy27aUHlVL+SJOK52smnpVpaG98RuBXUpk06n2y6ac1m0givycZWddXS4puNOdVjv9tMaP6vW5m/2PNFm+CmNHVw7ZZU6YG0KktHFCEiLvLxdu9xqoUJpUshwLqAVXCkdX/NK7nqmoFsA613ANQF3+jud1vytaz1alLt9UnvqyGqgXzmdPLxSUSlwSqfFnIkkGj1mg+dcBi0uOsDV9pxhntqdgjvthzWRrLpzq57Dn+TOlrZ2bM+Hkeqlrlfy06e6QdOpvuQoX9ngDu2pi++9ha14MsVXmj0mhJqbvDsFWEBrMu5U69zEtTeR1TrDOvt+JXOleDnD6AeLQV8fEJfDnLtLK+iOW6DQFU2f50Q3JeBZQgFdxcm6U4B1dzAt4qz61g38WS9GntaeHKHnw9JyXdJ7PlL2CFFqRl1LXVpcxKB3JZV2c92ODwrxhSjuUuNparLuFGABrYm40xO37uFXaDukzY/WIfNJTAAFYpUrHhVR1zKC5U7nuyoW3hBF91mzV+0R+TheSUXCNVmV12HdR7QA1/ju9NYe9qz5nXkNWXknE0lSaBArCLmrW0F3ZTuVcXFBW2efWomWMSkTgNaEej4A664NFrFu/fnBwzLmebK3TjicSKJP13ClTsRi2+sN7CYKXFe1zrm5YLB/Ium8KGA3uBkBWhPp+Riw7htna3x3un9rB3uy6ze0eYcTSX4pabnx7XC3fEq3+WTOUvmNroNYDh4xkSRuxDA7HwVaE9EtgGWjRapb+/s3sRf29n7H8SSlxJsWoFRnGPoUcvIumslYCJLcsRNJHo+MHe3k3NykdAtgAa0x3SlidQd7o9+7dcJxZ9/PbJtvZ20pYNZOaUYugEFPu46ltSIKWLIZA1rju1McFqI1pjvtYVW7hlg5nkiSsmX49W0Gn0haZGTraB0/Sbkq8pbsFYDW2O4UYAEtZ+7Urls9rK48ukUykaRAJtMKSYgVTouOwZHNuIdMUlIvXek7W+Nn1TqsfZ2Vjmscd7r/GGN1p7NPMpHkew4smqzaZwPpEJQRBXrYvLzHU8FoeeYmo/I6rPdstIh0640HO0Uzbu7v/5ZkIokJ5Q3L0GYCdlpMEpwpt7w8jBYVxVR+Mu7UgAW0bLrlpOfzN4xV4faDv5Ht+SjhgvF8Uv8kJc0briTODd/zWRHlguX7Cf2WHdaPdVg4LaKs+m8PHjYsVrf+Rrjno4KKh5VAHy06c9mwustLw+flV6iIaSEKuDslz6qNkwW0iN3pg70yzop0IkmNGvagyvbPNC8uxkHhF0eYl18VU2WzHihMIqv+pX6ycFpEWfX71yyLje4g6Z6Pj70O74ULgT5aiwEDVkmHNVS3VsWIVfrgx6YFsIAWqTv94NEmxuoN8i10JWk8W5btn5e3wxpOizJ1q1BKz41ZOwVYQIvQnX74oWVrbiJW5JOUoFmNutI/AR54vmbAagOsYbolRq361uoqee0Ug/WRjZZT3TrYsfzV4/1x9nxUuDgRtX9eng5dNMy9a2nEPR8PVTGlVDcQ47hTA9ZHBi4yd3qw1zB9+18/HGvPR6k2jXPg8/VtrkgpcJm02X0d7k7NXLORosbs+eiwPgZaRLr1/iemuG8+ejzens/TbcOlN3nFb6PlpxNw7Gi8Vz2E1ktmntjiPeQTSRasjwEWgTt981/ma9e69oB4C93r7dJaYOE322Z9ts0VCQxrOU072EKn0uZrmdhdJe9VW7CAFoE7/dQUrObeAfEk5drCSZ2WGi6aqtVLy6o2xwOLTrbQRaHcK1vE7vQXOiyg5cyd6rgO7pVN0/Ap8bz82snrlbUuLXarBOjD6gJGS8qY7iQlOdtPFGWrJk2NMWOjw3rchQW65dCdfvDZpinuj/9FOknZ6fbOZLVLS42YrjvCKIbK+xklu24K4/OnHG6he2JwtNY35khpAazPgZYjlddxfWqWkUuPPiCdl+9s1bpP8o6GVJ59zvK38apPUVhWUpiM1RJsCJLTLXTPxjpWgCCfSDqEBbQcu9ODe3lTsD4l3fPRWaEo1zXkTlVwDyiaCbmezVZTMWwgrsI430IH2YKLSKTycLIQLSLd+uDNhOncP/0n2SQlsELRyq4tIFpy74hDHuDpsdmmCbbQLSe/+RL5JCXAAlrO3Omn75jvyv94k3ALHVh1o3YSzW9515LFI6MUYki20D0r5qsqU2Tz8gDrCwSLRLcOPoHrkb93QDhJqWGsWnXWu4BoeZNHs5LIPmuE4mGkspX2kM7LI1hf6rBIdOtTs+i+8ynhvDx+ri5ntUMr/zQLrT9bxDMS6adnWP4hRjovb8D6As6WI3f66Vdm2+rvHxBtoT/VeWbbYhXSIPHxqlVgiMVF2X84kRQg+PQMz2rN0njCPR8d1tdAy5HKX30fHrSx9ynZvPyJTgxnZeWJC+pzkZINVSWk+LpePsDQfgLdEoUmnM85gs0VC9bXXwMtB+70mz1zpOHg30R7PvPatzirnqyaVbfCsZzxfIWLCTnEMoFuMEz4SoZ2rlvnxZiZAohkW1EWLKe69daFBEjmdwdEez7zt25brO5p9mogq7Jb1ZQcjUYj9YxPYf36xr7SriCvJRF8tpuZURc2X1wl2E8EWCS0vvneUneyPZ9b9SbOqr92usAqqh4K4zucsTFGT5tViUDlLY2PiCRb6BYsp7r1/n8gLSl99j7RFvq+1eRoZbWRJpJ8oUpD/wW107TzTx72vAQyuP7SHMkWOsACWiO7U+tgff8N0bx85/c106TvaSNNJGGzW7JE8MnDYso8WtT/WDsP5zSSLIxfviNcrHA5n6q44nLgck5/wga0HCsnHM9WwIHgUBJWWgllWKSiZKUbFAZqBDoVC9KOERpWI4Ozfd4/5gbo1yML1dBv5qjs7B/dX7/ufv192HfVACv57juAi7k6XYyCYvW08XpeoX95OUa3xufnvsnWkdRKz7RGzrTiq9NfW3uh1vntb/G0VFhI3crFg3Rg6XrnMzeutonOfZ21Iyl0gZaWSsmF1i11aJ23oN0zANa7BBdzdRoVIzCwjvM63vl8de5qgBYeY19h7qS026AfWdF4vLeb9Ze9UGtZf4v2SKrDugu0mHWrsHOLDiw9HeDL6q1s+8oEwiMpRJvd2sk9Bqo6pUNr+KwF755RhwW0WKvTxVyeLoVFHe98vjhHd5X+t5cxnZT0zrp6uox38LT+xgfHYhas1wjAUmihdEvcDcO5e65Pxyt0bvs6nU1zOOfh1v4p+J5+9gW88zBtfxjpsiK93QAWlpYE6uzfFXX0y69u0QrrzhzWeXiQivS1EN6T0nrDD7/bi/Z2A1gwE5mq0+JiifyN+ZyOV+jOZdoaUXp1Aus8bLeDSPtHv4D3pPR20OoB55EEsN4DWowqX9gh+5RbSwUd/fJcggrW1jLeeTh0ewga+kJ452Hz2QBx/bltQXq7/b0O6z0FF0LlpTswMIpR/Duf1bdHoBod4HR4u9ndkQOVKdp5mD6/6/ZinfAoLIRuiXs9tG7Av090OukkXJjT5e2m9sp3hPDOw1A9BG/+CeftBiMLaLFVp3I2SOUd/86HGwBWvpVlfd5uoW51aKGdh80g8cFzFqSDZxUWvw+02HQLZmEwllvEv0J3pheGyE0jp9PB030mQFUL7zzsIaiD3Racy+Jf67CAFpNurU/CLIzndPTLv5pajdf+gPzcqzqdh+10aPmvtKL95b3ngqRQ+wPSk/JzdVhAi0W3pCxZC6c2RF3vfJzcSv5WdRLq6qSEoQW1Ftox3QHHWkPnLCjn4X/UYN1roKWlW9IM6LO8qPOdT4qLl+Jzep2HydAiZbwd65j+S083TGIvznm4DuuegotV5dfXoCItS2ydlG+eSvICz3PJZIquiatfdhlxHg7RodUZQjume8/VRTPYa/01xnn475/7SB3WPWbdKuySf2d4V2Tpl08K/MpWPKF84ltfFjgXqbdcrxpxHraHoP5o/74dm4tBtzyBLivKMR1gAa3m1WmlDP1YYrH5K/RkZqW84BsG69p83FnFZdx5mHbqBm9fZsnFOLit/qX5IrxS8aL85VVYjCq/LsHpzLjUtCPpVGZj3PeyCVH79jL3f3AetruhEL94GZ2L4blAi3hELgbAAloMurU52072hTty044kIX6E1+30Eucy7DysvB87WJjidAv2h9d7f2fF5PlUYQn3yGefoTqVQbJ8e+tNXqHzx/PBI41Yx5Mpw87Dth/5aPWATZt0OHqg79mMSXqowboPtBhUXnoAR+fymmZH0nFhA3ohGj75VMqw8zDteev5gR2b52Pqphf57LkYAAtoMehWZYZKlnZHEg+sjqSVdBnNxXCfGYHD1hA2z8cEotXhReRiACyg1VS31h9GiFJnJc2OpKgQ0zIEm+eM5vnYQhdBpkPfR+b5gKdU8JIXk+cDsO4z6pb8iEz3qd2CZkdSbl4lc6v9zkA8nsgTlSG7aKO5GIMDQTgxtSFT28w3yI7n5g0zIrWNwmLULekxGfylwrpGR9JpcStAwcSWkkImkxGENwba1Ubar6YM5mK0/MBH3whjc8hMpPC4ddaLyPNRYd1XYWnolpSFjaGk2WMj0kkYLguZU/Wdz6nMGzPD6kQ0mjY5CC3IEbcdmTbpgZP4c15Eno8Ki03lpQTVd61OygJ9pBLO5vrUXXUysw0/MbWSMpjncwJutcNXWpE5ZFThr3kRqW01WE+AVlOV33wI9fuDh1o9NoUFkKvsyz02bRmqZQnOYNqkzd1Od9PItEnTWaj/vcxpkwDrCcHVVOU3KxEi0I9lON9aU6RMLBRkWZYkchpY3Jiil7CHziBSyQhU8qsug3k+tNSKhOy4/ERTF5HeS95fsueQASyVluau+p3/wGL4VFYgbcpSRZLXZ/cepXey8XJivjy5WKVFe2x8G/zhOx/6giW8lTSY5xM6cwseOrpxaZM/veIj/8BfO9hT2ygsNt2Sn5IhU9pUKMmzj7Pl8Xyk5AsHbg2R1ocaLKhcZ3INp4HHeBhacd5gFrqtpZ2uh7hMYcdPyXLo7zKzp01SWGy69RAqh8jT7HZ+2hemixtUX2K1b6QYI5N1SWy888mM0/XQaC4GnYfdITsqbdLhIRVt4KyJPW2yCkt8ArSa6tYzuIsOgygdBau41w6n9NHG00B+Sd3zGEybPHFmmBSXP7Dh0ibBBCh4zsSeha7CYlL5ygMVzNGwCrNVWETZSn3RxrPTJLz4iSRdBtMmW77bS/eHuJRcD4zJTg972mQN1nOA1VS3/lvGwXor2niLkVyZorCM5vmMdVC7LVwWuqcTWnE9rFnoAIuV1t3KeHNYsyqs3reijXc+fJqsYbEarDfaXPp1i+4PL9nsqJRc07khcIllzRQGWECrmW7dfTavDSv8uFBtSZoskbVmo9h458NnoTeLr96Qub6c4lJOnbtqd7+f/MWjblQWuunsMMBiz0IHWM9ZdEuBlT8iQS/sK8UWZua3t+MPshvVS4xFkRTwQw9yDXc+bRl6IiYoF4r/TOWnB9Ic59JVnba4I9S8BpXubeoKkBLe7GDOFAZY2rSgOr37cOHg5cNIb+xO4sHOo3+vbcqyVKlIklSs7XxoZ2A+Fz1859PX104oZwXl+vVUekSZvQtXX+dSeqrTMSLUwX8NojKFTVdUWKxZ6H+gsJh0S4XlLy0kdp6+kCuVZ7KyEVJ2PGsHdtVylihCOC0evsXIQHU/lU4qsITt+nLWO57mkk50dUqfn0+32DBZ6Cosk4M5C/2zCqzCc1Za+/vTpJZ7vF+pPJTlzaM7KYt7PjjLKhRfonVcoEYQMUG52n+Tj9E2wPzSKudC7qrd0I/r73dDRxKLbv34SpisDD91sGah/6kKS3wfaDVT+f19UO4XDzV7A2XquZKQFg/cYpzkVTjxKixSdJEjikh8mXOh7nxaTkyTeXj1BCYL/cej5Ots/7mDOQu9Dut9gquZytOR1fNC1uykLKRHAMB2TlRpZXgqer1tp5Q+CCFx6FJx4FXOhdGtiWvUuwaRha7AuklgmR3MyfEAi2EmNsDS6gCXVEPq/EZOjFanYlTMbakWbuVMbVddOry6tiu4nOy6NXYbtodj/6PtTJzauLY0Pvu+1c5z9AZ7XvY9s/4rlEWIl8HMlk2zuLBAFFRIYctl4EldVrSUPBI8qmk0QiOjlDcgWNhoHrIi8IIVBtTJk2VHb3//wNBSf0etbkm3L61RrYn3X9376dxzzneOBhZTt95uhPV3LN0CrP9N75qkhWuowNpu7/NJf163OI96l9ZupdO3/nEuopw3hO8DB4/q06fnM2MGXGFJPG42OhUwF9fx8svsXehEC9cQsEzpFsEypVtZFMIu720z+uU3ti5pYtXMbCgUmNBgGVqK13IQyYG50Lg+dAsOxmImo9NjsC0O+fupI4mt8r+vEXjQYkangAVa7XUru6NKzvT9bVYH+Ea7YH8sTFbh0/Hk5+GAfqFcwC9K5qJTD3K3g/3UY8PWLU3ogJoPU7cAi3m2WsBqo1t30sutWeXS2t7AM6nFlYgu5zMVWhCPm6n5eGho7kX0QbB1Swvrr1Dzaa9bgLUPWizdyhZVWMOPtpn98mvpUKsVvblbA42dlCfjqYX5Cd3COncsYUK3BDeaHoWXiRZTt37/n+qwqObDolWDZZZWVg6pZ359h+3zWdvMNd1zMjGXOm/sl48d1GAbcbkCK6KdGZ0KSAD6sLXNjG510UO6izkjCbQAC7QYupWVvQTLhM/nzsZSYNJwrCKfp5v3yydQsiZaQ14pxtKtfsTw4y+8gMo+OzrtqhqAAOtvzOgWYIEWMzql5N+WbMrnk07fmJ1uSHgtL92Kt+yXTxhOV9Av2ttHp8eeRw7b34/KPlvle99HLNv7N6ZpKbA2FVjmbmJhC64d2ZzP585m+u5qYEKZkzJ8OTObu5teO9+uX/5U8oh3tEHo56VYe5X3BFQdHazBMqXyvShJv0+w2LpVhfW1aVoF2HZCBbMu9B+sbWx8fndlfX3l7j/eSt/5jOXzSSQXIg2HMbAk9rRT+eiHaMX1oPrKjk7PfoiCRa/JycME6+uvTdKSUQqbLXD4E39wZy198Fm7Y87nE0vO4VWEnTRSG5X3eHFIaKQUW7fOUimsy+QETwXWbyqwQIup8jsosvqyWQ4XOu8+n3jM7dSGqBF7rHXNR4BWnxOYe8hA6y30HA390++bnuBJsEzexMdfoBTx1TbD52NpL8bJ5MLypPb9syS21C2KHWb7XwAslm698f1x9d36d++YnDwMWN+YppWXg6ruPtox4YpKb1497F6MmNjQFj4aFnta6Fb/BVUaggewQIsRnXbhaejoesf85OEaLNO08rL6hnE9kNk+n6t3H/xwY2MzvWakxXah94kNh2vYG5Oa65btCrItf/ECqq8sle8adGFKi/nZboCl0DKlWwWoaU5muzm/jAxPBGa27t7/T969GDhc2ihi9rlY0+jU9jwWELzwPcbWNqJFYda5Xo6ZlFVYPwItdnRaQtEvJDN9Plc3a3d2LHN37TDbJu194lJAQwvCpVN5W3dQFesr/axtk6B19kMKszgmD/9ZFRZosW+i/ERNSvnkLMvnQ/1Jo/evHnLbZCzm1SRvnHPiEaPKdwufqDfV38/cNokZ4EHkdbrMz0gCLNO0dvacyJUWWT6f7XXV1+fbOPQ+n4Q4qNH5KUXm9brV7anCujR58N5hzHYDrdf+2ok9K10cs90AC7RY0elD2YdimMzy+WzgITmzYWFrm7igiVDH5qN2Ay1hMDTvdocH564cQ4WMoVu9aN39uItnRhLBMqtbZTVJ48oVGD6fq1SR3dq0sm0ylghNataQxSSDbgkeT9Tj8QjHWDOSQOss9P1fz/LMSAIs0zeRntLLMsPnc+22Qz2EdzctbZtMiG5NcXE5JvH6fAzR6Yl/RXdWL89sNwXW9o84aO0/UhXekWe40EnfHT+8am3bZJ84pxGuT45IvC50nW698Rp64P69i2dGUhXWUw5axS/U8zL9RG7v89m4cYnMGFa3TYoLQe1Szh5+F7qWVi8MZc7vd5mfngFYT1VcJqLTh4VliFa5vc/ny1W0Fn1pfdvk4nc0EZc7RvGWzSZ4osrHI3Sb3pKruGAxZZFjegZgcZytco5EK9/ahK6YMSIw2213YNtkLBGph/J29VVti0pH59zec5GQN3zB5hEIVlvdeo0k64OzPLPdAIuDlvxkWI1RnhXb+XxuXsuQvlvZ2oazlRBnJmusJKmWaO6J9oSXncOq/Ex9HPJ7BDOz3V57e1QNRAZ7zbvQCRYPrWLeoZ6Y9UI7n8/try4jfL1madskaPXVFsXPJtTqa0JwOy411hpn/Z5u9gTPE0iAOd9+zbwLnWCBlindKpN9otzO50P+gsC1q8z58oxXNWiFp0d8dqnaNdIT9fua9LSe+57AVPmLH1KU9YYpFzp0C7AIFzs6LcM4MPFFsY2bcwfNDqEvreZOQcsuugMLiWpDkj26OtV8c4Pfw1D5l9+coD5UvlkjgMVxE3efqUGPa11u4/PBl6FrFbBAy8Iu9ERCqnZS0m5h42d00NNet04MTsIu/BqPCx2w+GiVl3EPC218PoUZcp4z9mLwzHazVzvAe5qzQlrd01a36BZ+pNxCjhlJNVjfApY53SqjHjb+rNjSuUJd4MMPtjn3+bBnUoqrjT03jS1ezgvtdOtl2q/1PmN6hoFWDRZomYtOZbqHNwotfT7ZbTWKHHq0ydiLwT3bLeaf0qBZng8Pumd8mv/lE7pb6xYmdypL0Plc6ID1LddNLCM+DJTyrVzo2ZtBVUOuXutQzQc+n75EUNNqczQqRqVoVLqgKc2+72kdnX76CdnuOF3ogMVHq7Tuwvuw1Mrnk/0vh3pXb19jV8i4JniKbqKyfFS0117VNik6OEEif8XWKjo9QafS/SmnC70Kq/gtJy0ZcemIt9zKzbn9lXpXg5vX+Le2tdOtvoQDFo9QVNL02ESvZEDL62nlQqf9ic63X+Z0of+dAmunCotH5Ste/IlfFFv4fDSwbvLs82GrvBiexLnS7UKP0trNiWO25q/qF153ovftoml/InTrTwmWGZUHrtIj6MNWuYXPR3uyOCv7jMnDIiKX8T+XdP3ytJzm0qCnqQv9FQGeu7F/OvE6Fy3A+jFomb2Ju2VkjDPFYlPnig4WaHUgOj11HN/FblHv87FJkP5znqbZwBf6P6YpI68iY2NS5QGLm1Z5HU/YG+XmPh8dLNCyHp0u+sdUCVAOlo5WNIwao6dp7vQi4gaX+1OkbEyrPGCBllnd2t0PjqB++Lipc6UOa1tbxbAencbdLlIsgytKoJ7JF23G3Kni9IGovaqayHhc6AewfqLAAi2z0Wlla4QSNU19PgTLt327ox1JSS+aD5NGN6dNQHXaLzRxcwo0Sv7fLiLBxaFbgMV7E/fvIajx7RSNzhUFlvqqcGSzCqyO6VYqVJ/AZXShiwHMEBGMVYz6wRq9cMKkz8cA66eHoFXJjWhVy0ArezuoSsvtLFUxOhGdpiIYCbTYxIUuBuhkGWs+HhwsWMhe49OtGqyf/pSb1jd4II5k7hWbOFe2CdbBy8dAy4Ju0ZikprPdNCfLUPM50Y9o9vKFExw+H6IFWD/l1q0Kvfxz5byR1j16SN+vmzE6EZ2m5smPbpyecfy7DuAQDD4fz/suOljIBnLoFmDx0AIu+X8mIADPZCOtLFI0U08UWKBlPTqNI4D3xfoMtBJ+jGu12XT98s/3X3HSwep/hZ+WFha3btVVK1R+aHSuFEKqtsC50iGVJ6Pw1FLMMD1DxB0NRI398ueoX8JjrPmYUXmCxU9LfpwZQX6vZPT5lL3qX21LZvTL89V8Tp/J0FJ0u46WtDBKL2l9rVqgpSzjL59AfotPtwALuHiiU8qYjgR3d/MtnSu5AqNfnrPmk8TpmZ6LN0796REj+CG/pHOhHxOCVNA22S9voFWF9TPQ4tOt/VKgrvEGn08BrQ7eQmf75RdXcEQmFhpoHRdpyetHkk3XL+95n7otu9HUzKtbf1KFBVqcN7H8hHakPyrpnSvyA1Vrl3duA1ZndCtJDv7MUrLPDliS6J6GKoWjuo4kDy2AHRsUWlT2GboFWIelVZkZqT8RdbSKe0NkxuDZNsnWrXh9YKwzHBerX4p9MfFohOrTPulIY49Nt0AV2Q89LWvVLFqABVp80enT/DhdxIrO51PMovv0v7dRxehQdJoM1Qs7vvBSLJUSv+OfUbQdYhbVdSRFvfWMcz+ygdwq/ye//ms/kRVYh9Otyg2oxPSTcr5Bt/JFH/zURdR8OhSdLp50aH1QwUAg4NA60r2irl9eosS7y+3Bq5pftwDrkDdxvxIh/cjLOudKBHmJndsd9vkkVxrs57oR/bMxe6NzRThKcAPCMdR8uHULsA5Nq/SMLuJyudhAq7BKsQPntkm2bqXmjO5r4mHXbT+yRdGPpbyCmB1JrWkB1qFpVShn6lJkS0OLjJyRAu+2SXbNZ80/3oLV7HFJNw8i6nbRjkBU9vl1i2ARLf7odL8cIV19UNY6V2QEFr5i3kjLqm4lFwLN92MkJN2skeg/TRNIj267N0d0Clg/r9PiV/mn9OoZce6VNLSK8CaO7hWZPh/+V3V8cdVwuFw+v2jXzUiS6P08Mv6S0HafD4sWYFm4ifXQdCSYL9VvYl4OqIf/wQ5qPp2MTgeSz807tNo+HQgnYvrt3tJ3M/Tj/2SsYvCovArr5z+3QquSc9E5L8l1WqUZKDw5VzobnQ6k3psLBceHDj6XHYH5lUXRrs+d9kj12+qNmt022YIWYIEWv24hfkC25jHRKsBut1zg2DbJlTsdiCfjz60cfJZOJeNqfqsvUafVE43UlV+yMfrlWbpFsKzoVmk3SKoxXyhCt+RHUwjB8kTLum4Zd9wdfBJ96HYTj/jtoNUjztChz3QLjO1HTN0iWJZ0qwxjXfXdg7NVvOdAspTl87Feq4ZxJRHOTPljNVo94uqleoQlHc7nQ7QAyzKtygMS+eEtuonUT3mjkGXTst6R1BdPhIMupfzaU0tvucfq4h5l+XzY0SlgMW4im9bWJHkCt3C2KP8XKXBsm+TRrfPxgXqtuu/dcKZGZiXW08hq0h3l9/kYaNVhWVP5/cpq3Siv0FJwkUd4Iv8QtDoanZ5ZWDmfOuBVo5WgMZ6hg2jreI0VvghtzL0YDJUHrF8AlgWV/6Y8U6eVK+8qtBQHGWyvqCd2NDpNhaZ9M3PvxlM1XGKkvqZGEr11VpEo37bJFrQIlmXd+qakGVs3X5YfaptPc3CudFTlBxYzyrV3LueeO63AqiecvSlxRpuGENhuTrZuVWGVfvELIy5+WiUtrYhcUmDRfr+dPNHq3Ks6CThDC4vVo0UJZ8fxiEsTYEmmtk0ydasK65egZUW3dLRm7x3Q2t9DjW/P6FyxXvOh4nQgXlP5OBZJTU6MaFmZ2zbJ1K3fq8L65S95aT1l0srslR8+3vWheAgzRiej06SPuo9q34knRfyfBlb82yYNusWAZfkmOh+UH5dX6cVzcA87rFtJfPtNL8XVeCsZbsIK70SLLnTA+v+hNbxaqqAe5lSdKwZaFl7VqXnN6OEarYF3dfM7I30S3okWXehaWFZ1C7QQQdTO070Kst/rcK50TOU/oyHW8ylNj41LuwshJGr7Ti250AkWaHUk3lrVDHJyPJmv30MDLWs1H9o3Ob20iFf1QCrn0s4XEfsYezG4dAuwOG7iU0a8Vdma0jpxJ5EulRlL23h1ixaZ+uIDqFW/F9KUxIbCot3CtkmdbgHWr0CrI7q1X3ni1F4F2AvqR6sjr+rP/h5Z5dW0Wk5MzWmny4/7RTvnPh9GdFqDBVqdiU53K3s+48aZQOEh0eqEbqXCIxSRKjmI06lTM9qRnb4FscnWNivRKWAxaPHmTsu7IaPX+5HM2NrGpVufpQNQw5Qy1TqeuqEtU7siiUXG1jb+VzVggVZnotPdp5UtQxU0By9GR6LTNTx1Jm+kzpw5f2upKo4kV7lk4l3j1jaL0SnB6qxuKcKl1Q+y+VjWLcCifZOO84vnU+95hxr+qJUUcqeWtk2+0gKWkZbVms/jUKN1eexBRUfLQs2nvvXVeyt9vrGCOBZ6L06OOwYtLt3SwPo/3s7YN20gjOJV5/T/69YhlbqzBmIpkiWWYlmKCggsJAujiqVRkxJFVlyKMDmnbiA2gDFSggdyRRm6JE269czXIQ6XYHN238QAy0/fPb0T+t7F6ltEs2udD9Di1SmexuRbZpMD5d+2KsEZzqr772hb6OzpdAHrhk6L0bfIUZzLueBJVM+xE4dvdd5n/xm5YgVRCfJhY/PNQitoRfctgAW0YvYtGK7UI+PqznFwC30t34LnhH1YaS6glNrYo26hx5FOXwGspGhdXp/X01xAW9WrmTtlc/lOzeBoSu9uNjapW+js6fQBLKAVczqF4RopwqPEVVLnrjdlSKeoQkO1o3xp7NH3qqOnU5pv+bDwja9EXJ7oEs/0pUDPS/o3wut8HZfvdFCbNlgFtbW/omuEMZ0CrCCtONMp4Lq0UkvXn5Skzz3sRfvPh1QQo9ZhpbSMyqh8ajyzhc74Fjq4PIF1C7AS8S3QmFhX9yEukLClWVdTj0zYKt8CtU1kftTrpTQNVfG4uLI9gzGdwmT9BliJ+BbQGnvLuMC/DNkaEAfzPMf+8dRJPGqbNkJmX+8qfIZbUm6BKkRHEuutGmABrYR8C2iR6RpahR2Ooky2IFmD0cR2CTTHsX2ZRLZJPqBer3fUP9GbcnlLoP66pNaOi+E7khjS6QbAAlrJ+RbgwrOBln7yVeVUQZOalq6P+v2LCdFFnzBSu3VJKfMi94Ty8tdWuxaqI4n9Vg2wiBL3LSjPwBdNY5t7RoKQEcU0T5QWxYwgPPvdcvPwuF2M0u0GsNb0LYD1X2iBPDwcyFkuBvGy3kGtWvjmYeZ0SmDd4jugxeJb4WkNxzN8qsq8wAIqx8vqd9TurNft9npN3wJYd3eMtKJ2u+HZmV41xPVIiYakfkBmK3q3G2M6XcC6B1hMJ/FnxJbFMcbDUVczMtFA7WS15skBQqQHPGq3G/utGmCx0Yp+EkHEv/DpyJJKvBiKE1+QKycT1GsfsDQPM6RTgBWklWg6DbZaD0mAx+7kSq1r5WxezNEgbYt5vqztWoO+3UOk5o2xeZghnW68fHF7fR+klWw6DdAiAmKu5571B7rV3a1qilIwymWjoCiKVG1a6mD02SEJ3jaPIm6hM6RTqm/5sH7d+wKXTyadhnptcuh4LmR4cvMhsokcx+v1HL8nib0jiT2dLmD9+cveHeQqDAMxAF0D9z8RO67Chh1qIRVNTKWOqJKh0ylRcI7wxLccudGHlltu6f9/ojjneFy+l1+ZWzGzrl1NWhefdz5btNOUWR20fplb1s1HaHndqoE1ae3cTgWXcfPZo51OWPX8JRo2H+92CqzKtNzf+azMrYh1A5Yhtzy1NnyFbm2np/jL6oHlmfL23LK/QjdvPseE1b+5KminOA7vfDZopwKrgdxyvVUD62stnH9rp8BSabGdAktq1d9OrbfqlV8kRawHsNrPLWM7FVj1a9lzy7T5CCyX3DJoebxCN7RTgVXILd6qJRbbaaadLmEJLbbTDNZ4Wr9VGzYfidVAO/XcfBLWc1mrrtxya6f63AJWVovtVGKptLj5AEulxXZ6mLAKucV2KrCKvy1uPsDSaHHzAVZQaXHzAVYICi1uPsBa0uKt+qOdSiy20+wXScBSaXHzAZZGi5vPDKuY8tx8EtYQNL8t3qqBpdJiOwWWSou3amCNp5xbbKfAKmmxnY5njsWUL+ZWxLoPKi1uPhHrtdfff+MBH1+DwAcw+f796+fI4CkmeIgGbmCAB5dRwBkUcAQKDh06BMQQsBkZrIeBDUhgLQpYjQKmYgOp6CABCcQgAQlkwMHEwPCVZPAWBIAkqeAu0WAXWaCZVBBJJGCCAAYAkYaxMz8+8jQAAAAASUVORK5CYII=;" parent="1" vertex="1">
          <mxGeometry x="230" y="710" width="70" height="70" as="geometry" />
        </mxCell>
        <mxCell id="1slNe64gq0bpDraKGNJo-11" style="edgeStyle=orthogonalEdgeStyle;rounded=0;orthogonalLoop=1;jettySize=auto;html=1;entryX=1;entryY=0.5;entryDx=0;entryDy=0;" parent="1" source="1slNe64gq0bpDraKGNJo-12" target="1slNe64gq0bpDraKGNJo-10" edge="1">
          <mxGeometry relative="1" as="geometry" />
        </mxCell>
        <mxCell id="1slNe64gq0bpDraKGNJo-12" value="" style="shape=image;verticalLabelPosition=bottom;labelBackgroundColor=default;verticalAlign=top;aspect=fixed;imageAspect=0;image=data:image/png,iVBORw0KGgoAAAANSUhEUgAAASwAAAEsCAMAAABOo35HAAADAFBMVEVCiyJDjCJFjiNGjyVEjiRJkSVMkihMkyhNkyhMlClOlClNlChOlSpPlilOlSlSmCxRmCtSmCtTmSxSmStUmi1Umy1Wmy5WnC5VnCxXnS9anzFbnzFboDFcoTJboTJdoTJdojJeojJeozNfozNfpDRhpTRipjVjpzVkqDdkqDZlqTdnqjhmqjdnqzhorDlprDlqrjpBiyFCiiJBiyJCjCJDjCJDiyFDjSNEjSNFjiJFjyRGjyRHkCVJkSVHkSRJkCVKkSdKkidJkidLkidLkSVLkyhMlChNlCZNlShOlilPlipQlypQlytQmCtRlytRmStTmixSmitVmy1XnS1XnTBYnjBanzBany5gpTNkqDVAiyBFjSNQlylSmCpBiiFAiiFAiSA/iiE/iSA+iB8+iSA+iCA9hyA+hx0+hx89hx88hx88hh46hRw6hR5KkyRSlzFVmTRZmzddnzlioj9lokdgnkNpo091rFiAs2aNuneUv36exYqszZyy0aO71bDE27rJ3sDR48rW5s/a6NTd6tfg7Nvk7t/n8OPq8ufO4cVvqFE5hB5GkCKQu32kx5S31Knw9u/3+vX5/Pn+/v7////8/fz0+PLu9OtUmytOky1bmj+GtmyZv4ppp0dCjSBPkzKfwpLA2LVTlTY5hRxWlzt7rmKnyJo4hBuJt3M5hBy00Ks5gxw/ih6VvYV3q16Mtn03hBxKjyyEsXR9rWs4gxtto1o3ghpGjSk3gxuty6Q2gxs2gRo2gho1ghpim1B2p2Rbl0U2gRk1gBo1gRo0gRo0fxk0gBk3hBkzgBgzfxkyfhkzfxhMjjUyfhYyfhgxfRdDiSsxfhgwfRc0gRcwfBdSkT4wfRUvexdHijIufBUtexMuexUtehU8hCUtexUsehRAhio3gh4reRMseRQ6hCAqeRMqeBIpdxModhIpdxI1fx8odxEndREldBA5giIldREkdBAkcw8icxAjcg4hcg4hcQ0gbw0gcQ0fbgwebQsbbAsaawoZagkYaQkXaAYUZwa35mSTAAAAGnRSTlP//f////3//////////f///////////////cPQHBAAACHASURBVHgBbNBTggRADEXRatu2bdu2vf99zEtzdKqS/F/GGOc/XODw+Lw7Lo8nAKyfhEJ8kUgkForFEolEKpOCRC5XgFLxiwrUtDRanZbo73AMoDcaTSazyWT5jxWwbDY7WO12BzgxLpcbXB6Pl/jAD7QCdzjBh1AoDEFaEVrRp1g0Fo89JBKJZCxJUnfJ9B8sk8mwLMvl8/lCsZAvlUrlB26FC/xqtQbcWq0OvHq9Ac1Gq91ud7qdTq/X73UGg4FIKBoMh0PZSCaWySTjsVKqVI4nkynIp9MZTOdzNSzUS41Go1vpVKi1Xq836/Wr1nZrJiZEgx3Z7w+AdTwdj4dXrePPWvCq5fF5n7XO5zNC4T1rBUJBPPqRyCUS+tSK04uReCIRS8WSiXctnHQqjf/Grv/VKjxr3b7YpQfkCqIoCMNdis1yyrF2EBsLeLbfeP85Ezsdq//BRfmr80FaybtaKVJrktSaekIrHq1rLeuh1kzsZV1oWc9qYZXWkhbStJa0kKa1pIU0rSUtZLKslrSQobWkhZy0aC1kpEVrISstVsuwpEVrISstWgv5grRILcOSFq2ForRYLZssabFahiUtWgt5adFayEuL1kKpJC1WK8aSFqmFsrRoLZSkRWuhIC1aCwVp0VooSIvWQkVarNYSqtKitVCTFq2FmrRYrSXUpUVroSYtWgs1adFaqEmL07JQkxathYa0aC00pEVroSktWgsNabFahiUtVsuwpEVrofHdWnv2u2z/oqR1eHh4chKr/SCtebS+Q6vTam+1z9vpPThxXM/zgyAIL7Kd73vuxNjoUPKi09PR0dGR79ZC60u11tfbdtdu9zledEbNXTgnkmYBAO9ad2NuwrlbOVOb2mR8Lbp1hMhJjoStMFtsNlSSxa2FRhq4BOsBOkgUYoccyWZZd9d/6R6hIS5NQ4a80dJ0/Xj09/r73mud3mA0mS0ohhNW0mZ3OCmKchWDopxOh91GugkcQy1mk9Gg92hU/T1i6dCQADLswp3Rgsz6z9lowf+mpqauPTKp9RimvT7c6qD8gSBN3z456FAwHKHsVhz1mgx6japXIB6SMAxz1lrFzKq71tWrV4BpJuqJxVHC5goHQai6oOmgnyJxNB7zqAcYiYTp7T1LLcCqpxY4tbbenNQZzD6rMxxilXgHmDndPrMhoeqV9ECGnZUWYNVJ68qV1tkrcxrD/IItwiGZOKRZwEViIPZzhgGus9ACrDpo3XVXy+yVRZ0RJSPB23UNOkC5UaNHJQSwumshSzXXuqt1tmVGZ/TZ/PTts4lQhESNxQxr6qunFmDVVqvlmdnLydSyNRI6zTIXCEdcTjtpJfAFzIeilnKgPh+2QLitNofT5Q8HT3OzC7oIb0otZPr66qeFrNRQq2V29u7oqs8ROIEo4iQJzGKejqU8Oi1UnxMvdXU83N7W3j7e3laM9g54AOp+HEpVlTrh0RtWTV50wW2DYuNYNTpsQ2PqPiF41UcLWauZVvPgXdFVjDo6pUJhWPct8ZheE5145PliCTZ+bXy8vVjOwwPQww89XHlOfKyLjW6plH0EElxUaTwGo9dH2F3HmAUdvm2vumgha7XRahaJ5lLrztBRnzll9ZljHu3Ei1MQN65de/Z5bk/VQ8V/pBDii6pEanoZt0WOIgvaLSkVpFfttZD/1kCr+enBu3XztsDhy5XTbTHqozNXW1uvFKtUnnsQ8IwoBrMLqgQUb6Tr8KIkbDUnoJaosRZkFn8tUXomhUXoQ6D8NiyTjd53V2vr1NWrNd2xAbMhcY8qEfPizkNSjA5RaOqXwFVLrb8gK3y1ROnFnDVw2N3WZ9RNXJlthcKrTvtb8I9Y3K9OmQ8F8+OxPwBX7bT+iqzw0kJk6cWMLXTgVk7hGc/iXbOzd9V/N/BCj0DSrzFYrAfLuoDb+EfgqpUWZBYfreGRuWl76MCCtB7T3pydveeuM9s7ZeCp+pf6OO46cC1W4x/gTl8brb8g/6teSybPb5Ch/VLoZhJSquWuM95pZpgeSb/HhLvofdlFGH7WV5vcgsyqWist0+F771W0C4slmweb79S+fC8DXmZ3eK+X3+epjdZfkDeq1HpZPjcf2fsZWjPaewafbm65k6cY8I38Zcri2JPvIafp13210ELeqE5r5NaWe/cV0REsNTMoam6AMx/YgEiY3HtyPrDg6fs7b62/IG9WpXWrMO3aTUUt6/6dRhrlhEwoZFSxBf9uLkdsYICnFmC9VY2WYu7t4C4q53xUlEYa6zyR+VkK283lN/+yj6cWYHHWAqskTu/KKm9U9rIIabTTVyHTn8LCu9Zpi4qfFmC9w1kLrIhdnxiqTY8MN+RZNWSXgQju3OfRP/DUQt7irCWfw3cugMgiaVmjnuwDl8rkoCsXa/klv/sW8iZXLXkBrfx4VzwvlzVyHwRwJXyByqJo5rEmQiBvctQaHcuVM5u2bt0aafyukZ+ZqMqHm+JVbyHvctR6Leko3zHXF+UjMlnjawn1ZPm7QPyBTy2PvMdNa3QsXrbyFhTnpCNJmCBodicyxuPJB7C4aY3mSfZuuYzIz0v/Vr8w4WY/Yl/fQPVayPvctJQf+NmEzstHRs6Plp594LCreexvIe9x01Jmg6WE3lCeq97AJl8Ji0pUv3cKWNy0lFulhTj4IWCdIy3GUsJyJvqqP8UALE5ayo8ipVsWZNY50moSspll/R2PMx/kY25ayjm2csAuyc+RljDBXjY+UO15InAh73LTGiuw60o4pTxHPc1NFrbSsgj7BqrWQt7lpjU2irGLsF17brSEzGp5t8Ys5NEHgXzCTeu1Je9tNqxR5bn4JsJWc8xVrqRjQh49NsinHLVWcmUsmtSdC63eJqOrsqGkB6yqtZDPOGqtfBisaFEbl8bkDa7FSNSW0hYgW2ZV3+0GmcVRawlK+EoE0GhjazEMk9p9sEKqmqrvDQQsjlpLi87dJxWOXF4hb1StCz2ShGXPeR3ez6Pv9A/IJ59w1CqQ+w7IN4GrAbVASqA2O+k9p8Ao08RDC7C4aSlfXTjQfrExNzYqbzQtcU/C7Njf+2Bm+HSAI59z1FKuLR/stSMz0RHYGWwYLeh369dbKPrAhcYYPv3yyBdctb7MlJv295yyotn8mKIhtAQCqUBtJNgOpD3X6tczfGYxkK+4an25WcrtkHVfqwM5rysoFCMjd1TriSekT6gNPufeWQUnVa4chHwmV5AvuGqt6NiyJbNFBPd1Rbrndflbijt2ivE3KeRUDLUH9nWYYnp3uXLgM+cDWFy11pJsPWz5spCz0/ubI0nLZvIZSLAzPiHr7oYe8EmPCXMGD/SzxfrVjnLlAFjVawEWR621vK30kxdegaIr7jx4F6Xw+NYiokinZbIz0erq6uzonEzELIfMdQRJk0os8LB3DJQBrKq14AbPVWvtFZzN6QKsjcpk3B46pJ/bsRDPRgtpBZzBDtdRCwar29u7X/esWtyuQ0aqAlaTWtzzE7EhULoss4TXfCLyNVettbW32bvlonJ0FLgWc+7AoUOBLvfbua1kfjidTosQpNZaHR1t7W1dr0M7PGY7dFKIhnZl1VCxlhebaLZykPCZfQUszlpfxtl1+IOlUYhiUZ9FqdCRE27rmZRmsSAqkkGCNfPU2p7tgTn0xybV+lXv0bOMMGehvygVbNfyYi97p9dLhHy0kG84a723QbNnFl+ypxhQ1idzeIQ+evDU4V43b2xpF/PPiAYHB0VPb3cIctB6/vnnXxzfjhcfmVTpYB5lgaTCR44JhShsVf3EkKBUy/f0YOXKgRHy0UK+5qz15Rb7rct9WTkhA69L2gxx7OAcTIM53NhyZiOriy7O3ISWZmCbhWhpbYU0u1KKq6W4cePGtevXr05tx/VrLzzw0mRx0GnajOKk0w/ZdMysE7UwnXhK+oSg8uTTz1YONhWvKXTA4qz1xkfs2uJd2XX6+uqoUoloc7B0nzx86nc5SAJDvXFjLKXXabTR5OTE3AzEfRAPzhRjAubnolqNzpOFATrzsg8m6JyRk2fR6bDdt6p5vFP6xK7nREGlcmgCLB5ayLffctVa+a58wDOm3Ns1Mjq2NLL4odfN9u6f6i0EgbDfRW2/xsFqdbvdBEHA31ay+KIHyhXxh0/1PgP2204R5pSqu1O676laXKkcJIDFQ6uIxVFr5RKb1e5LyoMdSa8pxwrRzWU3BVlwdkEHnITXACnV2d19YA9CmmLvG+Yhfm/PQL7nrrW0znYAf7d0aLebXKFUFJLZOAZL1Rk4BV2kL5NVP97R3nn4HsSQsVw5iC/w0kJ+4Ky18t586TIjH60c1XcqBzHF8Jx2M46RVKBeORYqznzGDZrJx9rbHuvqhjhUS1qpHMTVv8cG4rfIj9y13l9l6+OtL4/rAC+JyfLRrVUvZt1ewmoVdHFh9c2v6rUTHePj8Jak4/a3BIJKU4iE31t/kB+4a72/Ve6kee/kWQz4V6GQi/JJTSrn9RHFqfBQtWowi+6nbITPa0zpVBNt269Ievjk/a2dyqGH3zuSkB+4a733EXvAE//ytFNRMllanlaMIIW5qC4by2wP0ztckZPWOna9jFAO0r2Aek2xrE47+UixPH0BptBPuRv4ZKVyuAhYPLQAi7vWW9+xBzzra2sc5xOHh2XpYoha8nOLUY0uu7kxnZn3WlAftoDjRDnw7fc8WLzmzPSqIevRaF8vjusXq9P/M3cfzE0kWRzAu2QXyThcPvMtfCWDxpKOqEisq+zz5ZzG4SwnnLO1soxQ2SIOyGsFgkXODncWqxM3iCQjctocvsQ+TPfYSLAw3WN7ZheoQPxVq/2fft2vjfxGk8y104KDJDn8YAdT/y3Akq919lYb3v33pyOU56oRQtoieEpfPoKwWtBpsrMM8I4DqXTdEvjRAGGee/W4ZpDgoVxpnk0OZYzdytBt+Vpn/+XHk8CpI8p0z+B08GRnZ2tmnhL9zKPUSnMZTg6D+8sYO+Gh2/K1Lo7hAk/vyNn57SiliNZscihj7BuI7sjXCiX78R9fc/FfqtcqKMDJoffgdsYui+gmhVZyEhd4zoz9S/Va234sJYcfsPWkBCwKrfEJUuD534fq16rqxF+OfvEDxg6eaJpCa+xuDynwHFG9VpmUHAoAi0ULRhaF1vlbpMDz99CHateyRaTkwNodFqVotP5BCjy3QqrXstXjCTYMWGxa6A6F1vkxqcBz8YjatWw7peSQz6iF7tFoJUdJgWfsiMq1tpZJyWEra59mNE2jFT8ziAs848cU1RJWr1a4M8vmH7aS5FDA2gMcTdNoJWtIgSd5RDmt4tKsEYejIgu4lNOyS8nhhwWsHdPRPRqtJNkc4h47q5RWcdFwfUuXz9fVUj+szVZMy1bdi5NDWQFjf/lVaJpGa+x+Jy7wfHA2pIhWsVYbIR2TBtsjOsW0rJEhnBxszN340TSN1tif8UTQ9rOLIUW0tNrwnL1xvrBiWpYwSQ62baxagEU1tqQCz+WQIlrHI9gKa0W0Cs1bFik52AoYtQCLSismFXjGTyqhVXSojTjhITus0CxvI8mhumwrqxZ68IBGSzztxQWeZEgJreOn0yqMu8OCMgkiX0oOmwtYtQCLRisuFXiSZxXQKlrTnF6paNbrFNntViklh80FrFroIZVWnBR4DifPKqD160Od6Vid5TolsrxVSg7wKWTVQo+otK5KBZ7z5xXQ+s2+nnSs3n2lSmiZa0lysLLf54MeU2lFn5ACz5+V0PrNSAbWbn9kiQJvPrPJwbqFVasQPaLSil7Ek0znhbGL7Fq/PtTxhgbJLXV7md98ZpOD1c6qBR9DKq1o3E0KPMmL7Fq/RgNpUvgIVXhYu4ZFK8/aRJKDbTOr1ir09CmVVuIEKfAkLyug9YczJDpkHqFaI2jotbbg5NBZad/MqgVYdFqJyd24wBO/qIDWb061vm1bUddhR7agodSyVnbguTXfXsaqtQo9o9MSyenf0fh5BbSK/lDT89a9Ib2XnAbgotEyk+QwkMd+x10hekynFbuO/3GXomNKaP3meGBWy+sbSutWDh1jBY5Ci5eSg8XOrAVYdFqx5+14H88HpIrBqlXT6iH9amsC/jQuT2t4WOA0crX4/SQ5WFYyawEWnVbshZ8UeKIKaf3h1Jmj7d3d7U2BU8ePX6gd8KXN9R0HHJwgU4snySFitjNrARadVixOCjzXr44powVcvz41PHyq6DgqLkal2TWNae3Kvd2NNesEjQwts1lKDlY7qxZgPXtGp5XCBZ6hibhUT2TPW7/+DZxTxCvNpcUONzkRPrfdtVCif18ts72FJIc8O6sWxqLRSkgFHnFcMa20leYi7b7Rjt0ZVy2McJz+/bSWVuDk0PFvC7tWIfqYUitBNoecEMfmSUu7BryGw32e9OTlrlkHXO+hZXL0knC7Px+42LRgZFFq3biL/x7BeHT+tKDoU7o3AN3KMz6Nh7gS/Tu1SHKAx9PstLJowVOIPqHUEsnmkObz0bH51IJy4gVnU/pc7+nr31fC6d+hhZMDnuR3VprzaLUwFqWW+Ckp8PwJsOZVS1dcpHMc7hpM/zQGnUs413dq8Qde+xVtAbuVVgtj0WmJIs4O3ddj/51vLeASRvrbPJnneis4l+GtWkv5prQ3gWCVOY9aCyZ4Wq0UOf37H/HKvGsBV7HwcvLypifVwzUbOYPhzVqmlS3pr+VttTBzUWoBFq1Wipz+PZe4QqFFs8dGWOfMaDDj9fnrZobXm7Qq2jNey3sb8q2UWoXoM1qt1DkPLvAkphZIC7h0jtF2SF4Zwwtmr0wt3tGDy5ueuQ3Sqix0WjCyaLUSIz5c4BGjC6al0QlCeZ1/V+bwCle6gOt1LaMTJwf3/o45l260HjTn0WgBFq2WeL8LF3iisQXU4jQzn8buzBvKGmv3ulzGuVrG/bi6GXY5GudktQ4nlRZg0WqJn/bhRchPY1cXVEuj03L7+tODvdc71DdavQTO+UhaxlH8yYvwppxA++zg6qw1U3xNBCxaLTFGCjy34tEF1tJkrxH2BgZ6vRmLqv7wPiNkr1daxkY8ZVXzOUv5qsahWa0ainmrEH1Oq3UjRTaH3BWnFlrrl+AlZDkOtHsyShzdTXWVPwcv0FourTksteTkmFaGZ3s79lVZZY8twKLWeoALPJ6JxNQiaGWXwOxVHmjuzbwDsrMxUGEEr/J2LLNlaQ5oLeVr+rxkDDZukZ1OC9EX1FoPyOaQM6mpxdEq0WuErOrM4QVeHY2ByrVkU8CAaenMis1yvmpgkIT5gOy105+gz6m1UmRzyGjqo0XT0s8Mr4GewUyvzqadQzjc8GQ10FTRSFKaPz9PphZgUWvdlgo84keLqAVeMHv1Q0PEzPPVXpIcTJJWObliyee02GVqARatVuIJKfC8EGOLq6XXcHud7g7PWzr51JdvNPI8HEF/qVXZiin7AUuWFowseq2pVwUeb8dzMb7IWjMnqoffckW619c+0BCorljJ87zR6KrDpm7AkqX1E/QFtVYiFSQFnkRs8bUM4GXYF/a/uWuQ19Pb3tLkHm0YDfbhWSvI2+Rp/Rh9Qa/18AQp8CRiatAyGPQl3Lrq/pb367LUwNvkaf0YfUmv9ZCc/p1MxVSiZciC8bX0vbx2OXmrTC30Bb3WA6nAA1iq0YJvLm5Jdf272p7583PyZGqhL+i1UtdJgSclqkrLaASvdfvc3u+w6nZa8vJkaqGvvqLWuvmcFHimxGsq0wIvoSGzY7b09NSZc+R24wcseq2bX7fgAs+TG9dUp2VwNeLJqbG5c9frH8khv9Nkln93AfqGXuvmTVLguX/7/6rTMqzz4/NFFcaKmv07B/o6e6CH4C5fd18wsm2TmeLuAvQNg9ZDqcCTuqY6LYO05rDXaFzrchn3VjhqnE5nddW2TfxSqpse0JcMWg/PkALPg2uq03KRNYdm48zaqRHiOzzwA16DkK+FvmTQejiB3xxOPxRVp8XV4EURt0uhezFgZDFoPbhLCjwpUXVaXB1ebqvn1imjBVgMWg9ukQLPjYTqtEhy8ERc65TRAiwWrRevCjzevhc31aal56RqhX6dEloYi1pr+iY5/XsrpbaxpZeSQ6VrrSJaGIta61vm7kI3kiMIA3CF0ewXMayy+CIB0+h0KDwShZmZkzlmQ5iZcwzGmTmP1Su3YenIJExH19V7YqiSpl7hM/3W3/tX4AqeqTPCtHK7XHLIF3i02qFM0Yo/w4InOC1MK/vBM5gc8lzXj6BM0YpdwROcFqaVdskhw3YrymARtAJX8BgsWVr+AZccClxaUKFoBZPP2ILnzBlhWv7LmBwMFo+W+c6iaIXVx23B85vBkqSV9Q9icsjkmbQMFkUrPG4fhzw5c/6cKK2bb8HksJ9tHbbNYBG0wgDnXU9OnROldfP7j2NyyN3Co9XSCjWSlnIFT3BelFZmPyaHfC7PpQU1kpZyBU98RpSWX08ObFu6TVAjacW/YMETnxGlVU8OPts6bBNcImlF+DjkYDgqSqvDJQefbUu3CSokrcA+Dnlzz/FxUVqYHF7blmbb0jVYJK3gOBY81fEzgrTSNz+CySHDtqXbDBWilit4piRppTE5PP7+zWxbuk1wmaalh7DgCc4L0vJdcjBUXFpNcImmpV3BoyYEafnbMDn4fMvDBoumpVzBo0YFad0/bJPDyz7f8nATXKFpKVfwxFOCtO4fsd/wB3y+5eEGuEzTimeesgXPaDgqR6vDLla9tsPnWx42WDSt6LfH7D+si+GEGK1U2iaHZ/bfx7fTbLBoWvG0K3iCUTFaqU9dckjzLaY3wBWi1uxHWPDEo2K0uvficU8TT7m0/sciammcd/1JjYrR6thm/+wc9BnX+A0WUavsCh41JUZrEI98vHw/4+0Cg0XU0mN4v09NidEadMnh/jSflsEiail8HPJtEIjRGsTksK0jzafVAFeJWsVFLHj+NFgytCDlkkN3mk/LYBG1ihNY8FwMpGjBp8/b5PBpKsWnZbCIWkW9GwseFQrR6nDJIZ1K82k1wLUlolbJFTwqEqI1uB2TQwfnPR+DRdUq2ezw9s86FKJ1Q3LgvH5ksKhaGh+HjOhpIVreYZccOG9FGSyqlp7EgkdFQrQGdmNyMFh8Wg2wRNVSVfvEbs9oPC1Cq6fnVUwOHd2MWo2wRNVSEzjvWo2nRWj1fu2SA6QYtRpgmaw1d72ie/PZSSVDa3CXTQ570sB5464BlshamB1e+0VHIrTqyWEQUoxaBousVf75bVvwLEQitAZ3YnIYZL2f2AArZK0Sfvr3M4MlQWu9Sw4Gi1HrXlgiay3gp39366IIrfWYHHYMsN7mNFhkLX3xSVvwRMVIgNZA31FMDr3AqgVLZC193BU8KhagNfD1Y5gceljvvt4NS2Qtrb+1Bc/MbCxAawBvae2BHuDUuhuWl8laJVfwaCVAy6snh54OTi2LRdMqf44FTykWoLX+S0wO63kvMN8Nq3StGj4O+bxUFKC15TOXHO5n1boHlulaZXwc8lGpKEBr/UeYHDze697mx5CuVZrBgkep5LU8zyWHAd5b6HcZLLLWwiLOux43WElreWCTwxOfMl+ON1h0rQV1FAsenbyW55JDVx+v1l2wyqBVdgXPgkpca/0HuL3k9fWyat0Jqwxalc+w4CnNJq51Q3Lo72XVuhPWGLQqruApq8S16slhfS+zFqwyaNVcwVNWSWut2zeEZyrX9/FqmR9DBq3y5HP2d+pxnbTWxq8fxXPB6/t4te4wWHSt+UX7CZ43RlTCWhvXDb2BycHzeLUMFoPW/PxBnDwbOl7SyWlt3PL1Rzj6ftDz/mPuDl8Tt8M4gPvm7g/q+/0tBbsKzuxtX22qxkRl9NCoCqMwW0uGgeKIOsyhSZhXvdm4urPxcq3SLNpU1dq9veubPfYuMgkc3fZL3LeQt8KHJ/ZJwN/XiVYLsFBo/WmUjiYoRp5sSsvtwUQv9ckqs+f50olWC77gUWiN+1zSCFlQZ7puuxZI5aQTMmmE295xItZ67niPRGuu4EkjqSCrTma27vKQXO6HQjCVNBI83nE6EWs9c7xHo3XHh5OrJEIH8ts5cNmkheWabvEAN6gg5B6260St9dzxAY3WeF4Or5fqCR0Nxst6rXy+iUlFZq2dgSx73LvIteA2RKbFB9dPric4QemD19A6rXy+VP1aEr4JUWsfHdjD3Lsu5FpwGyLTulMYav1YcYpkWHl6M9OHQ/RapVKl1twSWYaIJ9cS//YIc+/soNcCLGRak/uLYsjUhBML0IK8GE7gjuyj0vqp8rLWrWwfC9mo6XTuBF7c8sB2aoEWYCHUGt8r2bCJK5nKBDiWV6bX+lLs8r9ovaxW691u1SXxLB2NUOYz8sPZoxwsXZZoPXN8QKo1H8vrXKvEw1GuUJbV076m31xfXkH+gVYdAm2dr+ujjlxmaR+RNj5knYoWPRjs8tZoARZSLRiusWQq1TMOz05QGcLPnRR5WVm0rq41TbuEOetdvHlz/hhD6+yscbbM6eny2oZ0Ky5F5oV9+hCPxM1ORoX599hyrCzSAqwHxFowXfcDgVkrwjH1SWTIoI/JFoplXpQUdbCY/to67/XeQXof0z5r/FIZDTqKdMyXi4UD7jAaiqRTf2cylfYVpR/zGOaxTOsLmCzkWrfj8d1QYr2f9YI/CBWPRchQMOo79DIcTWc/5QXNcYzX5w/gRDiTpkxGZin/vuhq5kDKY6EWYFmhdTuZ3b1VBA6Hr5anJZFYMRrXJ4YKHxbE7WYpDwuqx1ItwLJG61YHL33AF7wEgFkVKhJ9IRx9VWvm7eguACzLtHTwms/7Ks9ygQiFWiyRJn1Z4Xjr51qlZFN3AWBZqaUvL7O5PpXKBc5PxlJImKgY4adZXnLVutVKyb7uAsCyXEvTYMbmM23aEYUC58PD8F/t3yml0hHcx+0LojKqv+5W7e4uACzrtYxfF8CQzbTWQBLL7AHnCxCRWNxg+ywRlYZVww+rhsDLndEr2MKgQH4D3QWwZz3Yo2W8aYbcTiY3162FKom8ADsUzS23hCBOEGT4Y0iCwIOBqM/L0NkTVijDEqt+V4ftFJjq9Y11FwCWzVrG+y3IcDlsGjz6XLSmi4GqdhRFeoyidFR1MPqj8dvv7R4ElE4bjVeb7i4ArE1prd7YXD3m3SqgAzlvt5fPi/+rpgfHw0a1nv7GZvNay9vwr/bu2DaBKAiD8J5fTW7HcuJKHZKSERDSAdEtcD+XIjFIL5wWPo3+bLVQS61gQS21gkW11AqWWlArAw+11Bq1Yi21aqVaao1qqqXWqBVqqRUsqqVWsJiWWsGiWmqNaqylVjXUUutrVFMttZZqrKVWNdZSq5pqqRUsqqVWNdVSKwMPtdRa6ga11AqWWlArWFBLrWBBLbWCRbXUWupOtdTayoJaagULaqn1HSympVawqJZaGXiopdaGRbXUChbTUitYUEutYFEttYIFtdQKFtRSK1hQS61gQS21gjVT6zpZ6wy1DpO1/l5p1Y6FtT68IaNf2y7v2jrtWkfY1v+stn53rZ+nVj0AtNdyrbtS/UIAAAAASUVORK5CYII=;" parent="1" vertex="1">
          <mxGeometry x="532.5" y="710" width="70" height="70" as="geometry" />
        </mxCell>
        <mxCell id="1slNe64gq0bpDraKGNJo-13" value="&lt;h3 align=&quot;center&quot;&gt;AWS&lt;br&gt;CLOUDFRONT&lt;/h3&gt;" style="text;html=1;strokeColor=none;fillColor=none;align=center;verticalAlign=middle;whiteSpace=wrap;rounded=0;" parent="1" vertex="1">
          <mxGeometry x="235" y="805" width="60" height="30" as="geometry" />
        </mxCell>
        <mxCell id="1slNe64gq0bpDraKGNJo-14" value="&lt;h3 align=&quot;center&quot;&gt;AWS&lt;br&gt;S3&lt;/h3&gt;" style="text;whiteSpace=wrap;html=1;align=center;" parent="1" vertex="1">
          <mxGeometry x="530" y="782.5" width="77.5" height="52.5" as="geometry" />
        </mxCell>
        <mxCell id="1slNe64gq0bpDraKGNJo-15" value="&lt;h3 align=&quot;center&quot;&gt;AWS LAMBDA&lt;/h3&gt;&lt;h3 align=&quot;center&quot;&gt;(SERVERLESS FUNCTION)&lt;br&gt;&lt;/h3&gt;" style="text;whiteSpace=wrap;html=1;align=center;" parent="1" vertex="1">
          <mxGeometry x="602.5" y="454.63" width="150" height="100.25" as="geometry" />
        </mxCell>
        <mxCell id="1slNe64gq0bpDraKGNJo-16" value="&lt;h3 align=&quot;center&quot;&gt;CLIENT&lt;br&gt;&lt;/h3&gt;" style="text;whiteSpace=wrap;html=1;align=center;" parent="1" vertex="1">
          <mxGeometry x="146" y="187.5" width="77.5" height="52.5" as="geometry" />
        </mxCell>
        <mxCell id="1slNe64gq0bpDraKGNJo-17" value="(4) Link stored S3 song with Cloudfront Service. It will provide an url for streaming the song" style="text;html=1;strokeColor=none;fillColor=none;align=center;verticalAlign=middle;whiteSpace=wrap;rounded=0;" parent="1" vertex="1">
          <mxGeometry x="340" y="760" width="170" height="95" as="geometry" />
        </mxCell>
        <mxCell id="1slNe64gq0bpDraKGNJo-18" value="(1) Upload file trough frontend interface. It will be sent as base64 encoded bytes via HTTP" style="text;html=1;strokeColor=none;fillColor=none;align=center;verticalAlign=middle;whiteSpace=wrap;rounded=0;" parent="1" vertex="1">
          <mxGeometry x="39.5" y="360" width="170" height="95" as="geometry" />
        </mxCell>
        <mxCell id="1slNe64gq0bpDraKGNJo-19" value="(2) Send the incoming encoded song file to a Serverless Function" style="text;html=1;strokeColor=none;fillColor=none;align=center;verticalAlign=middle;whiteSpace=wrap;rounded=0;" parent="1" vertex="1">
          <mxGeometry x="329" y="410" width="170" height="95" as="geometry" />
        </mxCell>
        <mxCell id="1slNe64gq0bpDraKGNJo-20" value="(3) Convert encoded base64 byte song into an actual mp3 file. The file will be stored in the S3 Bucket" style="text;html=1;strokeColor=none;fillColor=none;align=center;verticalAlign=middle;whiteSpace=wrap;rounded=0;" parent="1" vertex="1">
          <mxGeometry x="592.5" y="585" width="170" height="95" as="geometry" />
        </mxCell>
        <mxCell id="1slNe64gq0bpDraKGNJo-21" value="(5) On incoming user HTTP requests for&lt;br&gt;playing a song backend will retrieve the url asociated to it. This url is embeded into the frontend music player" style="text;html=1;strokeColor=none;fillColor=none;align=center;verticalAlign=middle;whiteSpace=wrap;rounded=0;" parent="1" vertex="1">
          <mxGeometry x="39.5" y="570" width="170" height="95" as="geometry" />
        </mxCell>
      </root>
    </mxGraphModel>
  </diagram>
</mxfile>
